/* XPM */
static char *black_knight[]={
"40 40 3 1",
". c None",
"# c #000000",
"a c #ffffff",
"........................................",
"........................................",
"........................................",
"........................................",
"........................................",
"........................................",
"................#...#...................",
"...............###.###..................",
"...............###.###..................",
"..............####a###..................",
".............###aa#####.................",
"............###a#########...............",
"...........###############..............",
"..........############a####.............",
".........####aaa#######a####............",
".........###aaa#########a####...........",
"........#################a####..........",
"........##################a###..........",
".......###################a####.........",
".......####################a###.........",
"......######################a###........",
".....################.#####a####........",
"....##aa###########...######a###........",
"....##############...########a###.......",
"....#####a#######...########a####.......",
"....####aa#####....##########a###.......",
".....#aaa####.....############a###......",
".......a####....#############a####......",
"......#####....###############a###......",
".......##.....###############a####......",
".............#################a###......",
"............#################a####......",
"...........###################a###......",
"...........#######################......",
"...........#######################......",
"...........#######################......",
"...........######################.......",
"........................................",
"........................................",
"........................................"};
