/* XPM */
static char *black_castle[]={
"40 40 3 1",
". c None",
"# c #000000",
"a c #ffffff",
"........................................",
"........................................",
"........................................",
"........................................",
"........................................",
"........................................",
"........................................",
"..........#####...####...#####..........",
"..........#####...####...#####..........",
"..........#####...####...#####..........",
"..........####################..........",
"..........####################..........",
"...........##################...........",
"............##aaaaaaaaaaaa##............",
".............##############.............",
"..............############..............",
"..............##aaaaaaaa##..............",
"..............############..............",
"..............############..............",
"..............############..............",
"..............############..............",
"..............############..............",
"..............############..............",
"..............############..............",
"..............############..............",
"..............############..............",
"..............############..............",
"..............##aaaaaaaa##..............",
"..............############..............",
".............##aaaaaaaaaa##.............",
"............################............",
"...........##################...........",
"..........##aaaaaaaaaaaaaaaa##..........",
"..........####################..........",
".........######################.........",
".........######################.........",
".........######################.........",
"........................................",
"........................................",
"........................................"};
