/* XPM */
static char *black_bishop[]={
"40 40 3 1",
". c None",
"# c #000000",
"a c #ffffff",
"........................................",
"........................................",
"........................................",
"........................................",
"........................................",
"........................................",
"...................##...................",
"..................####..................",
".................######.................",
"..................####..................",
"..................####..................",
".................######.................",
"...............##########...............",
"..............############..............",
".............##############.............",
"............#######aa#######............",
"...........########aa########...........",
"...........########aa########...........",
"..........######aaaaaaaa######..........",
"..........######aaaaaaaa######..........",
"..........#########aa#########..........",
"...........########aa########...........",
"...........########aa########...........",
"............################............",
".............##############.............",
"..............############..............",
"...............aaaaaaaaaa...............",
"..............############..............",
".............##############.............",
"..............############..............",
"...............a########a...............",
"...............#aaaaaaaa#...............",
"..........####################..........",
".........######################.........",
"........###########..###########........",
"........##########....##########........",
".........########......########.........",
"........................................",
"........................................",
"........................................"};
