/* XPM */
static char *new_game[] = {
/* width height num_colors chars_per_pixel */
"    50    50        8            1",
/* colors */
". c #040204",
"# c #8cdef4",
"a c #749edc",
"b c #84a6f4",
"c c #0c0a0c",
"d c #6c96fa",
"e c #040604",
"f c #0c0e0c",
/* pixels */
"..................................................",
".######aaaaaa######aaaaaa#######aaaaaa######aaaaaa",
".######aaaaaa######aaaaaa#######aaaaaa######aaaaaa",
"c######aaaaaa######aaaaaa#######aaaaaa######aaaaaa",
"c######aaaaaa######aaaaaa#######aaaaaa######aaaaaa",
".######aaaaaa######aaaaaa#######aaaaaa######aaaaaa",
".######aaaaaa######aaaaaa#######aaaaaa######aaaaaa",
"eaaaaaa######aaaaaa######aaaaaaa######aaaaaa######",
"eaaaaaa######aaaaaa######aaaaaaa######aaaaaa######",
"eaaaaaa######aaaaaa######aaaaaaa######aaaaaa######",
".aaaaaa######aaaaaa######aaaaaaa######aaaaaa######",
".aaaaaa######aaaaaa######aaaaaaa######aaaaaa######",
"eaaaaaa######aaaaaa######aaaaaaa######aaaaaa######",
"e######aaaaaa######aaaaaa#######aaaaaa######aaaaaa",
".######aaaaaa######aaaaaa#######aaaaaa######aaaaaa",
".######aaaaaa######aaaaaa#######aaaaaa######aaaaaa",
"c######aaaaaa######aaaaaa#######aaaaaa######aaaaaa",
"c######aaaaaa######aaaaaa#######aaaaaa######aaaaaa",
"c######aaaaaa######aaaaaa#######aaaaaa######aaaaaa",
".aaaaaa######aaaaaa######aaaaaaa######aaaaaa######",
".aaaaaa######aaaaaa######aaaaaaa######aaaaaa######",
"eaaaaaa######aaaaaa######aaaaaaa######aaaaaa######",
"eaaaaaa######aaaaaa######aaaaaaa######aaaaaa######",
".aaaaaa######aaaaaa######aaaaaaa######aaaaaa######",
".aaaaaa######aaaaaa######aaaaaaa######aaaaaa######",
"e######bbbbba######abbbaa#######bbbaab######bbbbaa",
"e######aaaaaa######aaaaaa#######aaaaaa######aaaaaa",
"c######aaaaaa######aaaaaa#######aaaaaa######aaaaaa",
".######aaaaaa######aaaaaa#######aaaaaa######aaaaaa",
".######aaaaaa######aaaaaa#######aaaaaa######aaaaaa",
"c######aaaaaa######aaaaaa#######aaaaaa######aaaaaa",
"c######aaaaaa######aaaaaa#######aaaaaa######aaaaaa",
".aaaaaa######aaaaaa######aaaaaaa######aaaaaa######",
".aaaaaa######aaaaaa######aaaaaaa######aaaaaa######",
".aaaaaa######aaaaaa######aaaaaaa######aaaaaa######",
"eaaaaaa######aaaaaa######aaaaaaa######aaaaaa######",
"eaaaaaa######aaaaaa######aaaaaaa######aaaaaa######",
".aaaaaa######aaaaaa######aaaaaaa######aaaaaa######",
".######aaaaaa######aaaaaa#######aaaaaa######aaaaaa",
"c######aaaaaa######aaaaaa#######aaaaaa######aaaaaa",
"c######aaaaaa######aaaaaa#######aaaaaa######aaaaaa",
".######aaaaaa######aaaaaa#######aaaaaa######aaaaaa",
".######aaaaaa######aaaaaa#######aaaaaa######aaaaaa",
".######aaaaaa######aaaaaa#######aaaaaa######aaaaaa",
"eaaaaaa######aaaaaa######aaaaaaa######aaaaaa######",
"eaaaaaa######aaaaaa######aaaaaaa######aaaaaa######",
".aaaaaa######aaaaaa######aaaaaaa######aaaaaa######",
".aaaaaa######aaaaaa######aaaaaaa######aaaaaa######",
"eaaaaaa######aaaaaa######aaaaaaa######aaaaaa######",
"eaaaaaa######aaaaaa######aaaaaaa######aaaaaa######"
};
