/* XPM */
static char *quit_xpm[]={
"22 22 43 1",
"e c #a4140a",
"# c #a41c0b",
"m c #a92415",
"x c #ac2a1c",
"d c #ac2f21",
"b c #b23628",
"c c #b33b2e",
"a c #b44234",
"o c #bc421c",
"p c #bc5732",
"C c #bc5e04",
"q c #c0603a",
"h c #c07e5c",
"s c #c46f4a",
"g c #c47852",
"J c #cc7350",
"i c #cc825c",
"j c #cc8a63",
"k c #cc8f66",
"r c #d4976b",
"l c #d49e77",
"O c #d8cecc",
"F c #d99979",
"K c #dca47c",
"N c #dca684",
"f c #ddab91",
"n c #e2b59a",
"t c #e4d2c4",
"M c #e7e5ea",
"G c #ebf3f9",
"I c #ececf2",
"v c #ecfafc",
"w c #efcbb7",
"D c #f1c5b4",
"z c #f4eef4",
"B c #f4f6fc",
"y c #f8d5c8",
"L c #f9e4d8",
"H c #fcece2",
"E c #fcf2e4",
"A c #fcfed0",
"u c #fcfefc",
". c None",
"...#aabcccdbdddddde...",
".bbfggghgghijjikkjlmm.",
".bbfggghgghijjikkjlmm.",
"ennoppppqqkrsssssghlle",
"chhpppstuuuuvvwiihhrrx",
"chhpppstuuuuvvwiihhrrx",
"bggpssuuyylnzzABBjhrrm",
"dhhCttufsswDggnuuwjkkm",
"chhguuysggEEgghEEujrrm",
"chhguuysggEEgghEEujrrm",
"dhhkuursssEEhhiDDvlrr#",
"bhhFuuFgggGEiiiwwufll#",
"djjhBBtgggHEhhkIIAlll#",
"djjhBBtgggHEhhkIIAlll#",
"diiJEEuKhhLtjjDuuMlll#",
"djjskkBuyynfLLBuullNN#",
"djjskkBuyynfLLBuullNN#",
"djjgggiLuuuuuuLlllfNN#",
"eKKhhhijkkfnrrlNNfOgge",
".mmKkkrkrrllllKKKfgee.",
".mmKkkrkrrllllKKKfgee.",
"...exxmm##m######ee..."};
