/* XPM */
static char *white_bishop[]={
"40 40 3 1",
". c None",
"# c #000000",
"a c #ffffff",
"........................................",
"........................................",
"........................................",
"........................................",
"........................................",
"........................................",
"...................##...................",
"..................#aa#..................",
".................#aaaa#.................",
"..................#aa#..................",
"..................####..................",
".................#aaaa#.................",
"...............##aaaaaa##...............",
"..............#aaaaaaaaaa#..............",
".............#aaaaaaaaaaaa#.............",
"............#aaaaaa##aaaaaa#............",
"...........#aaaaaaa##aaaaaaa#...........",
"...........#aaaaaaa##aaaaaaa#...........",
"..........#aaaaa########aaaaa#..........",
"..........#aaaaa########aaaaa#..........",
"..........#aaaaaaaa##aaaaaaaa#..........",
"...........#aaaaaaa##aaaaaaa#...........",
"...........#aaaaaaa##aaaaaaa#...........",
"............#aaaaaaaaaaaaaa#............",
".............#aaaaaaaaaaaa#.............",
"..............#aaaaaaaaaa#..............",
"...............##########...............",
"..............#aaaaaaaaaa#..............",
".............#aaaaaaaaaaaa#.............",
"..............#aaaaaaaaaa#..............",
"...............#aaaaaaaa#...............",
"...............##########...............",
"..........#####aaaaaaaaaa#####..........",
".........#aaaaaaaaa##aaaaaaaaa#.........",
"........#aaaaaaaaa#..#aaaaaaaaa#........",
"........#aaaaaaaa#....#aaaaaaaa#........",
".........########......########.........",
"........................................",
"........................................",
"........................................"};
