/* XPM */
static char *white_queen[]={
"40 40 3 1",
". c None",
"# c #000000",
"a c #ffffff",
"........................................",
"........................................",
"........................................",
"........................................",
"........................................",
"........................................",
"...................##...................",
"...........##.....#aa#.....##...........",
"..........#aa#....#aa#....#aa#..........",
"..........#aa#.....##.....#aa#..........",
"...........##......##......##...........",
"...##......##......##......##......##...",
"..#aa#.....##.....#aa#.....##.....#aa#..",
"..#aa#.....#a#....#aa#....#a#.....#aa#..",
"...##......#a#....#aa#....#a#......##...",
"....#......#a#....#aa#....#a#......#....",
"....##.....#aa#...#aa#...#aa#.....##....",
"....#a#....#aa#...#aa#...#aa#....#a#....",
"....#aa#...#aa#...#aa#...#aa#...#aa#....",
".....#a#...#aa#..#aaaa#..#aa#...#a#.....",
".....#aa#..#aaa#.#aaaa#.#aaa#..#aa#.....",
"......#aa#.#aaa#.#aaaa#.#aaa#.#aa#......",
"......#aaa##aaa#.#aaaa#.#aaa##aaa#......",
"......#aaaa#aaaa#aaaaaa#aaaa#aaaa#......",
".......#aaaaaaaaaaaaaaaaaaaaaaaa#.......",
".......#aaaaaaa##########aaaaaaa#.......",
"........#a#####aaaaaaaaaa#####a#........",
"........##aaaaaaaaaaaaaaaaaaaa##........",
".........#aaaaaaaaaaaaaaaaaaaa#.........",
".........#aaaaa##########aaaaa#.........",
".........######aaaaaaaaaa######.........",
".........#aaaaaaaaaaaaaaaaaaaa#.........",
"........#aaaaaa##########aaaaaa#........",
"........#######aaaaaaaaaa#######........",
"........#aaaaaaaaaaaaaaaaaaaaaa#........",
"........#aaaaaaaaaaaaaaaaaaaaaa#........",
".........######################.........",
"........................................",
"........................................",
"........................................"};
