<?xml version="1.0" encoding="UTF-8" standalone="no"?>
<svg
   xmlns:dc="http://purl.org/dc/elements/1.1/"
   xmlns:cc="http://creativecommons.org/ns#"
   xmlns:rdf="http://www.w3.org/1999/02/22-rdf-syntax-ns#"
   xmlns:svg="http://www.w3.org/2000/svg"
   xmlns="http://www.w3.org/2000/svg"
   xmlns:sodipodi="http://sodipodi.sourceforge.net/DTD/sodipodi-0.dtd"
   xmlns:inkscape="http://www.inkscape.org/namespaces/inkscape"
   version="1.0"
   width="166.79576"
   height="166.3956"
   viewBox="0 0 1667.9576 1663.956"
   preserveAspectRatio="xMidYMid meet"
   id="svg8"
   sodipodi:docname="bitlbee.svg"
   inkscape:version="1.0 (unknown)">
  <metadata
     id="metadata14">
    <rdf:RDF>
      <cc:Work
         rdf:about="">
        <dc:format>image/svg+xml</dc:format>
        <dc:type
           rdf:resource="http://purl.org/dc/dcmitype/StillImage" />
        <dc:title />
      </cc:Work>
    </rdf:RDF>
  </metadata>
  <defs
     id="defs12" />
  <sodipodi:namedview
     inkscape:document-rotation="0"
     pagecolor="#ffffff"
     bordercolor="#666666"
     borderopacity="1"
     objecttolerance="10"
     gridtolerance="10"
     guidetolerance="10"
     inkscape:pageopacity="0"
     inkscape:pageshadow="2"
     inkscape:window-width="1920"
     inkscape:window-height="983"
     id="namedview10"
     showgrid="false"
     inkscape:zoom="2.5406098"
     inkscape:cx="13.616898"
     inkscape:cy="87.197527"
     inkscape:window-x="0"
     inkscape:window-y="0"
     inkscape:window-maximized="1"
     inkscape:current-layer="svg8" />
  <path
     style="fill:#000000;stroke-width:1.96803"
     d="m 624.05781,1285.9612 c 6.03087,-26.158 -160.4531,96.3736 -316.23551,67.8784 C 179.7118,1330.406 49.426162,1348.335 20.079042,1330.5914 0.47489214,1318.7385 65.677712,1227.0862 80.241932,1178.2415 163.91165,897.63419 400.63485,847.98501 358.62572,839.61496 -225.49902,723.23189 442.01877,16.473395 765.13546,34.106025 1224.967,-57.793733 1176.7686,279.31511 1165.9476,381.35829 c 24.479,32.90983 335.6942,-150.63079 457.5379,21.08343 97.1984,136.98171 -197.1199,414.67698 -197.9827,425.08129 125.0691,41.50925 348.5341,109.31428 113.9194,481.22359 -114.3484,254.1261 -1063.27405,618.7495 -915.36439,-22.7854 z"
     id="path21"
     sodipodi:nodetypes="sssssccsccs" />
  <path
     style="fill:#f9fa0e;stroke:none"
     id="path5"
     d="m 808.85242,1657.0411 c -129,-21 -220,-122 -220,-244 0,-32 4,-69 10,-83 16,-44 -17,-32 -81,29 -102,98 -212,130 -289,84 -19,-11 -52,-39 -72,-62 -30,-33 -40,-39 -50,-29 -20.999998,21 -74.999998,15 -91.999998,-10 -22.9999999,-33 -19.9999999,-57 14,-88 30,-28 30,-28 15,-70 -20,-58 -19,-106 5,-156 28,-58.00001 125.999998,-120.00001 225.999998,-145.00001 46,-11 63,-23 64,-41 0,-5 -8,-8 -17,-8 -36,0 -120,-48 -152,-86 -46,-57 -65,-128 -52,-201 32,-176 197,-357 424,-468.000005 131,-63 200,-79.99999982 337,-78.99999982 95,0 122.99998,3.00000002 159.99998,19.99999982 127,58 174,154.000005 147,302.000005 -9,51 0,53 68,15 53,-29 82,-31 230,-16 98,10 117,17 155,58 35,38 35,121 -2,190 -14,28 -34,73 -45,100 -15,42 -28,56 -80,90 -34,22 -62,45 -62,50 -1,6 20,17 46,23 61,17 146,99 162,157 26,95.00001 2,194.00001 -74,306.00001 -166,243 -513,405 -774.99998,362 z m 251.99998,-52 c 357,-91 646,-423 547,-628.00001 -26,-54 -65,-87 -129,-108 l -51,-17 -39,41 c -40,41 -111,82 -164,95 -16,4 -55,30.00001 -85,58.00001 -81,74 -153.99998,118 -218.99998,131 -39,8 -74,25 -112,54 -30,23 -79,49 -108,59 -62,20 -72,37 -72,120 0,96 56,169 152,199 64,20 193,18 279.99998,-4 z M 301.70913,1320.8295 c 3.15059,-26.2512 -28.23249,-37.2635 -43.68098,-25.0303 -11.19914,9.2896 -18.63586,28.1126 0.41379,42.9257 15.60799,12.1368 40.39412,2.9396 43.26719,-17.8954 z M 84.609962,1306.3617 c 3.33547,-19.8951 -23.25878,-34.5373 -39.45365,-20.8157 -14.67119,14.483 -11.30389,34.4951 6.69611,41.4951 17.26513,5.6246 29.48547,-5.5814 32.75754,-20.6794 z m 591.242458,-77.3206 c 52,-15 130,-66 139,-90 5,-11 -190,-362.00001 -216,-389.00001 -14,-14 -105,23 -149,60 -38,33 -81,98 -81,123 0,8 117,211.00001 166,289.00001 18,27 66,29 141,7 z m -488.33044,-98.3075 c 4.02852,-19.2517 -6.13844,-35.6149 -26.28328,-35.5686 -24.21223,0.056 -37.51565,26.9413 -21.38628,45.8761 17.45194,17.7213 43.2293,9.4399 47.66956,-10.3075 z M 1230.8524,918.04109 c 25,-8 64,-31 87,-51 42,-36 85,-104 79,-127 -2,-7 -39,-77 -83,-155 -58,-103 -87,-146 -105,-153 -59,-22 -202,28 -248.99998,88 -21,26 -21,27 -2,58 10,17 59.99998,104 109.99998,194 51,89 98,162 105,162 7,0 33,-7 58,-16 z m -836.99998,-143 c 30,-30 122,-81 145,-81 6,0 42,-31 78,-68 72,-73 131,-107 222,-126 40,-8 71,-24 113,-57 32,-26 76.99998,-52 99.99998,-59 78,-23 85,-28 96,-67 17,-60 13,-105 -14,-159 -94,-188.000005 -459.99998,-158.00000482 -745.99998,62 -134,103 -232,255 -233,363 -1,98 60,184 150,211 47,14 56,12 89,-19 z m 1190.99998,-246 c 23,-55 18,-102 -11,-121 -27,-18 -115,-32 -115,-19 0,15 97,175 106,175 3,0 12,-16 20,-35 z"
     sodipodi:nodetypes="csccccsccccccscccccccccccccccccccccccccccsscccscccccccccscccsccccccccccsccscccccsccccccssc" />
</svg>
