<?xml version="1.0" encoding="UTF-8" standalone="no"?>
<svg
   xmlns:dc="http://purl.org/dc/elements/1.1/"
   xmlns:cc="http://creativecommons.org/ns#"
   xmlns:rdf="http://www.w3.org/1999/02/22-rdf-syntax-ns#"
   xmlns:svg="http://www.w3.org/2000/svg"
   xmlns="http://www.w3.org/2000/svg"
   xmlns:sodipodi="http://sodipodi.sourceforge.net/DTD/sodipodi-0.dtd"
   xmlns:inkscape="http://www.inkscape.org/namespaces/inkscape"
   inkscape:version="1.0 (unknown)"
   sodipodi:docname="bitlbee.svg"
   id="svg8"
   preserveAspectRatio="xMidYMid meet"
   viewBox="0 0 2030 1990"
   height="199px"
   width="203px"
   version="1.0">
  <metadata
     id="metadata14">
    <rdf:RDF>
      <cc:Work
         rdf:about="">
        <dc:format>image/svg+xml</dc:format>
        <dc:type
           rdf:resource="http://purl.org/dc/dcmitype/StillImage" />
        <dc:title></dc:title>
      </cc:Work>
    </rdf:RDF>
  </metadata>
  <defs
     id="defs12" />
  <sodipodi:namedview
     inkscape:current-layer="svg8"
     inkscape:window-maximized="1"
     inkscape:window-y="0"
     inkscape:window-x="0"
     inkscape:cy="116.47476"
     inkscape:cx="114.25826"
     inkscape:zoom="7.1859296"
     showgrid="false"
     id="namedview10"
     inkscape:window-height="983"
     inkscape:window-width="1920"
     inkscape:pageshadow="2"
     inkscape:pageopacity="0"
     guidetolerance="10"
     gridtolerance="10"
     objecttolerance="10"
     borderopacity="1"
     bordercolor="#666666"
     pagecolor="#ffffff" />
  <path
     sodipodi:nodetypes="sssssccsccs"
     transform="scale(10)"
     id="path21"
     d="m 80.520539,141.19201 c 0.603087,-2.6158 -16.04531,9.63736 -31.623551,6.78784 -12.81105,-2.34336 -25.839614,-0.55046 -28.774326,-2.32482 -1.960415,-1.18529 4.559867,-10.35052 6.016289,-15.23499 C 34.505923,102.35931 58.178243,97.394392 53.97733,96.557387 -4.4351444,84.91908 62.316635,14.243231 94.628304,16.006494 140.61146,6.8165182 135.79162,40.527402 134.70952,50.73172 c 2.4479,3.290983 33.56942,-15.063079 45.75379,2.108343 9.71984,13.698171 -19.71199,41.467698 -19.79827,42.508129 12.50691,4.150925 34.85341,10.931428 11.39194,48.122358 -11.43484,25.41261 -106.327407,61.87495 -91.536441,-2.27854 z"
     style="fill:#000000;stroke-width:0.196803" />
  <path
     sodipodi:nodetypes="csccccsccccccscccccccccccccccccccccccccccsscccscccccccccscccsccccccccccsccscccccsccccccssc"
     d="m 990,1783 c -129,-21 -220,-122 -220,-244 0,-32 4,-69 10,-83 16,-44 -17,-32 -81,29 -102,98 -212,130 -289,84 -19,-11 -52,-39 -72,-62 -30,-33 -40,-39 -50,-29 -21,21 -75,15 -92,-10 -23,-33 -20,-57 14,-88 30,-28 30,-28 15,-70 -20,-58 -19,-106 5,-156 28,-58 126,-120 226,-145 46,-11 63,-23 64,-41 0,-5 -8,-8 -17,-8 -36,0 -120,-48 -152,-86 -46,-57 -65,-128 -52,-201 32,-176 197,-357 424,-468 131,-63 200,-80 337,-79 95,0 123,3 160,20 127,58 174,154 147,302 -9,51 0,53 68,15 53,-29 82,-31 230,-16 98,10 117,17 155,58 35,38 35,121 -2,190 -14,28 -34,73 -45,100 -15,42 -28,56 -80,90 -34,22 -62,45 -62,50 -1,6 20,17 46,23 61,17 146,99 162,157 26,95 2,194 -74,306 -166,243 -513,405 -775,362 z m 252,-52 c 357,-91 646,-423 547,-628 -26,-54 -65,-87 -129,-108 l -51,-17 -39,41 c -40,41 -111,82 -164,95 -16,4 -55,30 -85,58 -81,74 -154,118 -219,131 -39,8 -74,25 -112,54 -30,23 -79,49 -108,59 -62,20 -72,37 -72,120 0,96 56,169 152,199 64,20 193,18 280,-4 z M 482.85671,1446.7884 c 3.15059,-26.2512 -28.23249,-37.2635 -43.68098,-25.0303 -11.19914,9.2896 -18.63586,28.1126 0.41379,42.9257 15.60799,12.1368 40.39412,2.9396 43.26719,-17.8954 z m -217.09917,-14.4678 c 3.33547,-19.8951 -23.25878,-34.5373 -39.45365,-20.8157 C 211.6327,1425.9879 215,1446 233,1453 c 17.26513,5.6246 29.48547,-5.5814 32.75754,-20.6794 z M 857,1355 c 52,-15 130,-66 139,-90 5,-11 -190,-362 -216,-389 -14,-14 -105,23 -149,60 -38,33 -81,98 -81,123 0,8 117,211 166,289 18,27 66,29 141,7 z m -488.33044,-98.3075 c 4.02852,-19.2517 -6.13844,-35.6149 -26.28328,-35.5686 -24.21223,0.056 -37.51565,26.9413 -21.38628,45.8761 17.45194,17.7213 43.2293,9.4399 47.66956,-10.3075 z M 1412,1044 c 25,-8 64,-31 87,-51 42,-36 85,-104 79,-127 -2,-7 -39,-77 -83,-155 -58,-103 -87,-146 -105,-153 -59,-22 -202,28 -249,88 -21,26 -21,27 -2,58 10,17 60,104 110,194 51,89 98,162 105,162 7,0 33,-7 58,-16 z M 575,901 c 30,-30 122,-81 145,-81 6,0 42,-31 78,-68 72,-73 131,-107 222,-126 40,-8 71,-24 113,-57 32,-26 77,-52 100,-59 78,-23 85,-28 96,-67 17,-60 13,-105 -14,-159 C 1221,96 855,126 569,346 435,449 337,601 336,709 c -1,98 60,184 150,211 47,14 56,12 89,-19 z M 1766,655 c 23,-55 18,-102 -11,-121 -27,-18 -115,-32 -115,-19 0,15 97,175 106,175 3,0 12,-16 20,-35 z"
     id="path5"
     style="fill:#f9fa0e;stroke:none" />
</svg>
