<?xml version="1.0" encoding="UTF-8"?>
<svg width="57mm" height="57mm" version="1.1" viewBox="0 0 201.96849 201.96849" xmlns="http://www.w3.org/2000/svg" xmlns:cc="http://creativecommons.org/ns#" xmlns:dc="http://purl.org/dc/elements/1.1/" xmlns:osb="http://www.openswatchbook.org/uri/2009/osb" xmlns:rdf="http://www.w3.org/1999/02/22-rdf-syntax-ns#" xmlns:xlink="http://www.w3.org/1999/xlink">
<defs>
<radialGradient id="a" cx="262.33" cy="945.24" r="185.5" gradientTransform="matrix(.68662 -.30389 .24146 .54605 -300.74 -264.47)" gradientUnits="userSpaceOnUse">
<stop stop-color="#fff" offset="0"/>
<stop stop-color="#fff" stop-opacity="0" offset="1"/>
</radialGradient>
<clipPath id="j">
<path d="m99.889-2.3838e-4a95.889 95.889 0 0 0 -95.889 95.889 95.889 95.889 0 0 0 95.889 95.891 95.889 95.889 0 0 0 42.705 -10.078l0.12695 0.0137 40.793 15.832c3.2548 1.2631 7.5363 3.047 10.455 0.27343 2.8333-2.6922 2.1681-5.4221 1.1875-9.4121l-11.348-46.168a95.889 95.889 0 0 1 -2e-3 2e-3v-8e-3l2e-3 6e-3a95.889 95.889 0 0 0 11.971 -46.352 95.889 95.889 0 0 0 -95.891 -95.889z" fill="#EF6C00" fill-rule="evenodd"/>
</clipPath>
<clipPath id="i">
<path d="m99.889-2.3838e-4a95.889 95.889 0 0 0 -95.889 95.889 95.889 95.889 0 0 0 95.889 95.891 95.889 95.889 0 0 0 42.705 -10.078l0.12695 0.0137 40.793 15.832c3.2548 1.2631 7.5363 3.047 10.455 0.27343 2.8333-2.6922 2.1681-5.4221 1.1875-9.4121l-11.348-46.168a95.889 95.889 0 0 1 -2e-3 2e-3v-8e-3l2e-3 6e-3a95.889 95.889 0 0 0 11.971 -46.352 95.889 95.889 0 0 0 -95.891 -95.889z" fill="#EF6C00" fill-rule="evenodd"/>
</clipPath>
<clipPath id="h">
<path d="m99.889-2.3838e-4a95.889 95.889 0 0 0 -95.889 95.889 95.889 95.889 0 0 0 95.889 95.891 95.889 95.889 0 0 0 42.705 -10.078l0.12695 0.0137 40.793 15.832c3.2548 1.2631 7.5363 3.047 10.455 0.27343 2.8333-2.6922 2.1681-5.4221 1.1875-9.4121l-11.348-46.168a95.889 95.889 0 0 1 -2e-3 2e-3v-8e-3l2e-3 6e-3a95.889 95.889 0 0 0 11.971 -46.352 95.889 95.889 0 0 0 -95.891 -95.889z" fill="#EF6C00" fill-rule="evenodd"/>
</clipPath>
<clipPath id="g">
<path d="m99.889-2.3838e-4a95.889 95.889 0 0 0 -95.889 95.889 95.889 95.889 0 0 0 95.889 95.891 95.889 95.889 0 0 0 42.705 -10.078l0.12695 0.0137 40.793 15.832c3.2548 1.2631 7.5363 3.047 10.455 0.27343 2.8333-2.6922 2.1681-5.4221 1.1875-9.4121l-11.348-46.168a95.889 95.889 0 0 1 -2e-3 2e-3v-8e-3l2e-3 6e-3a95.889 95.889 0 0 0 11.971 -46.352 95.889 95.889 0 0 0 -95.891 -95.889z" fill="#EF6C00" fill-rule="evenodd"/>
</clipPath>
<clipPath id="f">
<path d="m99.889-2.3838e-4a95.889 95.889 0 0 0 -95.889 95.889 95.889 95.889 0 0 0 95.889 95.891 95.889 95.889 0 0 0 42.705 -10.078l0.12695 0.0137 40.793 15.832c3.2548 1.2631 7.5363 3.047 10.455 0.27343 2.8333-2.6922 2.1681-5.4221 1.1875-9.4121l-11.348-46.168a95.889 95.889 0 0 1 -2e-3 2e-3v-8e-3l2e-3 6e-3a95.889 95.889 0 0 0 11.971 -46.352 95.889 95.889 0 0 0 -95.891 -95.889z" fill="#EF6C00" fill-rule="evenodd"/>
</clipPath>
<clipPath id="e">
<path d="m99.889-2.3838e-4a95.889 95.889 0 0 0 -95.889 95.889 95.889 95.889 0 0 0 95.889 95.891 95.889 95.889 0 0 0 42.705 -10.078l0.12695 0.0137 40.793 15.832c3.2548 1.2631 7.5363 3.047 10.455 0.27343 2.8333-2.6922 2.1681-5.4221 1.1875-9.4121l-11.348-46.168a95.889 95.889 0 0 1 -2e-3 2e-3v-8e-3l2e-3 6e-3a95.889 95.889 0 0 0 11.971 -46.352 95.889 95.889 0 0 0 -95.891 -95.889z" fill="#EF6C00" fill-rule="evenodd"/>
</clipPath>
<clipPath id="d">
<path d="m99.889-2.3838e-4a95.889 95.889 0 0 0 -95.889 95.889 95.889 95.889 0 0 0 95.889 95.891 95.889 95.889 0 0 0 42.705 -10.078l0.12695 0.0137 40.793 15.832c3.2548 1.2631 7.5363 3.047 10.455 0.27343 2.8333-2.6922 2.1681-5.4221 1.1875-9.4121l-11.348-46.168a95.889 95.889 0 0 1 -2e-3 2e-3v-8e-3l2e-3 6e-3a95.889 95.889 0 0 0 11.971 -46.352 95.889 95.889 0 0 0 -95.891 -95.889z" fill="#EF6C00" fill-rule="evenodd"/>
</clipPath>
<clipPath id="c">
<path d="m99.889-2.3838e-4a95.889 95.889 0 0 0 -95.889 95.889 95.889 95.889 0 0 0 95.889 95.891 95.889 95.889 0 0 0 42.705 -10.078l0.12695 0.0137 40.793 15.832c3.2548 1.2631 7.5363 3.047 10.455 0.27343 2.8333-2.6922 2.1681-5.4221 1.1875-9.4121l-11.348-46.168a95.889 95.889 0 0 1 -2e-3 2e-3v-8e-3l2e-3 6e-3a95.889 95.889 0 0 0 11.971 -46.352 95.889 95.889 0 0 0 -95.891 -95.889z" fill="#EF6C00" fill-rule="evenodd"/>
</clipPath>
<filter id="b" x="-.012228" y="-.011781" width="1.0245" height="1.0236" color-interpolation-filters="sRGB">
<feGaussianBlur stdDeviation="0.9782166"/>
</filter>
<clipPath id="k">
<path d="m99.909-2.3832e-4a95.889 95.889 0 0 0 -95.889 95.889 95.889 95.889 0 0 0 95.889 95.891 95.889 95.889 0 0 0 42.705 -10.078l0.12695 0.0137 40.793 15.832c3.2548 1.2631 7.5363 3.047 10.455 0.27343 2.8333-2.6922 2.1681-5.4221 1.1875-9.4121l-11.348-46.168a95.889 95.889 0 0 1 -2e-3 2e-3v-8e-3l2e-3 6e-3a95.889 95.889 0 0 0 11.971 -46.352 95.889 95.889 0 0 0 -95.891 -95.889z" fill="#EF6C00" fill-rule="evenodd"/>
</clipPath>
</defs>
<metadata>
<rdf:RDF>
<cc:Work rdf:about="">
<dc:format>image/svg+xml</dc:format>
<dc:type rdf:resource="http://purl.org/dc/dcmitype/StillImage"/>
<dc:title/>
</cc:Work>
</rdf:RDF>
</metadata>
<g transform="translate(-4 2.6816)">
<path d="m104.89 0.062262a95.889 95.889 0 0 0 -95.889 95.889 95.889 95.889 0 0 0 95.889 95.891 95.889 95.889 0 0 0 42.705 -10.078l0.12695 0.0137 40.793 15.832c3.2548 1.2631 7.5363 3.047 10.455 0.27343 2.8333-2.6922 2.1681-5.4221 1.1875-9.4121l-11.348-46.168a95.889 95.889 0 0 1 -2e-3 2e-3v-8e-3l2e-3 6e-3a95.889 95.889 0 0 0 11.971 -46.352 95.889 95.889 0 0 0 -95.891 -95.889z" fill-rule="evenodd" filter="url(#b)" opacity=".4"/>
</g>
<g transform="translate(-4 2.6816)">
<path d="m104.89-1.9378a95.889 95.889 0 0 0 -95.889 95.889 95.889 95.889 0 0 0 95.889 95.891 95.889 95.889 0 0 0 42.705 -10.078l0.12695 0.0137 40.793 15.832c3.2548 1.2631 7.5363 3.047 10.455 0.27343 2.8333-2.6922 2.1681-5.4221 1.1875-9.4121l-11.348-46.168a95.889 95.889 0 0 1 -2e-3 2e-3v-8e-3l2e-3 6e-3a95.889 95.889 0 0 0 11.971 -46.352 95.889 95.889 0 0 0 -95.891 -95.889z" fill="#EF6C00" fill-rule="evenodd"/>
<text x="85.862968" y="-55.271603" fill="#000000" font-family="Sans" font-size="125px" letter-spacing="-10.89px" stroke-width="1px" word-spacing="5px" style="line-height:1000%" xml:space="preserve"><tspan x="85.862968" y="-55.271603"/></text>
</g>
<g transform="translate(-4 2.6816)" fill="#FF9800" fill-rule="evenodd">
<path transform="translate(5 -1.9375)" d="m145.16 11.184-5.1323 9.6494c-0.77924 1.4651-0.65974 2.414 0.66876 3.181 9.6669 5.4885 18.123 12.874 24.861 21.711 1.0553 1.6161 2.0805 1.7131 3.6776 0.57156l8.8097-6.2967c-8.5961-12.01-19.85-21.872-32.885-28.816z" clip-path="url(#c)"/>
<path transform="translate(5 -1.9375)" d="m193.8 75.615-9.6271 2.0628c-2.6627 0.57051-3.4076 1.173-2.9059 3.9174 0.85823 4.7146 1.3042 9.4971 1.3319 14.293-0.028 5.5788-0.62194 11.137-1.7709 16.59-0.86591 3.2316 0.13682 3.7709 3.1615 4.5814l8.9864 2.3014c1.9818-7.6683 3.0058-15.553 3.0488-23.473-0.0187-6.8177-0.76446-13.614-2.2246-20.273z" clip-path="url(#d)"/>
<path transform="translate(5 -1.9375)" d="m14.264 102.77-10.208 0.87943c1.2094 14.832 5.854 29.178 13.566 41.904l8.5443-5.2324c2.395-1.4666 1.8954-3.3783 0.9862-5.0451-5.1183-9.4026-8.359-19.716-9.5362-30.366 0-2.0942-1.8816-2.2674-3.3531-2.1407z" clip-path="url(#e)"/>
<path transform="translate(5 -1.9375)" d="m51.504 166.6-5.8227 8.509c12.711 8.7128 27.334 14.234 42.631 16.096l1.2203-9.9084c0.35507-2.883-1.0857-3.5295-3.3323-3.9026-10.402-1.737-20.374-5.4532-29.374-10.945-1.6475-1.0674-3.64-2.3072-5.3225 0.15147z" clip-path="url(#f)"/>
<path transform="translate(5 -1.9375)" d="m32.209 27.684c-10.43 10.395-18.325 23.053-23.074 36.992l10.201 3.4146c1.6581 0.55501 2.8326-0.12096 3.3743-1.592 3.7776-10.022 9.4708-19.21 16.759-27.052 1.5611-1.5611 1.5673-2.9601 0.44751-4.0766z" clip-path="url(#g)"/>
<path transform="translate(5 -1.9375)" d="m99.889-0.25c-12.188 0.026059-24.259 2.3753-35.566 6.9219l3.5304 8.749c1.0633 2.6351 1.6168 3.5263 4.9739 2.3523 8.6921-3.0313 17.839-4.5888 27.062-4.5993 5.5558 0 6.4863 0.35003 6.7808-3.446l0.74851-9.6477c-2.5045-0.20865-5.0162-0.31876-7.5293-0.33008z" clip-path="url(#h)"/>
<path transform="translate(5 -1.9375)" d="m138.72 168.48c-4.1763 2.2546-8.5596 4.0906-13.05 5.6342-1.0036 0.34498-1.2074 1.1822-0.8682 2.2737l3.4406 11.071c4.9298-1.5312 9.728-3.4581 14.348-5.7617l0.12695 0.0137 14.029 5.4453 4.1217-10.206c0.7548-1.8689-0.0184-2.7016-1.5946-3.3132l-14.721-5.7125c-1.8668-0.7244-3.6883-0.60144-5.8318 0.55572z" clip-path="url(#i)"/>
<path transform="translate(5 -1.9375)" d="m186.53 152.8-10.639 2.7089c-0.78879 0.20085-1.674 1.0239-1.3549 2.338l9.7592 40.154c8.5671 5.9754 15.304 3.0673 11.016-9.4727z" clip-path="url(#j)"/>
</g>
<g transform="translate(-4 2.6816)">
<g transform="matrix(.38356 0 0 .38356 -248.18 -138.87)" fill="#f5f5f5" fill-rule="evenodd">
<circle cx="799.11" cy="609.86" r="27.299"/>
<circle cx="918.92" cy="609.86" r="27.299"/>
<circle cx="1039" cy="609.86" r="27.299"/>
</g>
</g>
<g transform="translate(-4 2.6816)">
<path transform="translate(4.9801 -1.9375)" d="m192.45 47.716c-61.698 0-111.7 49.103-111.7 109.67 0 12.776 2.2288 25.041 6.3216 36.439 5.0691 0.70557 10.252 1.0688 15.515 1.0688 18.805 0 30.914 7.2845 47.465 1.2691l54.002 6.0661c5.2436 2.119 11.634 1.3795 10.272-4.1116l-14.237-57.567c9.1507-16.069 12.275-34.366 12.275-53.24 0-13.726-2.6317-26.842-7.4248-38.91-4.0992-0.44747-8.2658-0.68323-12.486-0.68323z" clip-path="url(#k)" fill="url(#a)" opacity=".19212"/>
</g>
</svg>
