<?xml version="1.0" encoding="UTF-8" standalone="no"?>
<svg
   xmlns:dc="http://purl.org/dc/elements/1.1/"
   xmlns:cc="http://creativecommons.org/ns#"
   xmlns:rdf="http://www.w3.org/1999/02/22-rdf-syntax-ns#"
   xmlns:svg="http://www.w3.org/2000/svg"
   xmlns="http://www.w3.org/2000/svg"
   xmlns:xlink="http://www.w3.org/1999/xlink"
   xmlns:sodipodi="http://sodipodi.sourceforge.net/DTD/sodipodi-0.dtd"
   xmlns:inkscape="http://www.inkscape.org/namespaces/inkscape"
   sodipodi:docname="isida4psi.svg"
   inkscape:version="1.0 (4035a4f, 2020-05-01)"
   id="svg2004"
   version="1.1"
   viewBox="0 0 130.36099 135.46666"
   height="135.46666mm"
   width="130.36099mm">
  <defs
     id="defs1998">
    <radialGradient
       inkscape:collect="always"
       xlink:href="#linearGradient5287"
       id="radialGradient6089"
       gradientUnits="userSpaceOnUse"
       gradientTransform="matrix(1,0,0,0.9012783,-7.230475,-27.40353)"
       cx="-2.3874285"
       cy="47.673786"
       fx="-2.3874285"
       fy="47.673786"
       r="13.200403" />
    <linearGradient
       id="linearGradient5287">
      <stop
         style="stop-color:#000000;stop-opacity:1;"
         offset="0"
         id="stop5289" />
      <stop
         id="stop5453"
         offset="0.5"
         style="stop-color:#001d8c;stop-opacity:0.49803922;" />
      <stop
         style="stop-color:#00567c;stop-opacity:0.24705882;"
         offset="0.75"
         id="stop5455" />
      <stop
         style="stop-color:#000000;stop-opacity:0.75916231;"
         offset="1"
         id="stop5291" />
    </linearGradient>
    <filter
       inkscape:collect="always"
       id="filter5329"
       color-interpolation-filters="sRGB">
      <feGaussianBlur
         inkscape:collect="always"
         stdDeviation="0.48195281"
         id="feGaussianBlur5331" />
    </filter>
    <filter
       inkscape:collect="always"
       id="filter5764"
       color-interpolation-filters="sRGB">
      <feGaussianBlur
         inkscape:collect="always"
         stdDeviation="1.0622218"
         id="feGaussianBlur5766" />
    </filter>
    <filter
       inkscape:collect="always"
       id="filter5768"
       x="-0.16916354"
       width="1.3383271"
       y="-0.05220345"
       height="1.104407"
       color-interpolation-filters="sRGB">
      <feGaussianBlur
         inkscape:collect="always"
         stdDeviation="1.0622218"
         id="feGaussianBlur5770" />
    </filter>
    <linearGradient
       inkscape:collect="always"
       xlink:href="#linearGradient5343"
       id="linearGradient6091"
       gradientUnits="userSpaceOnUse"
       gradientTransform="matrix(0.26458333,0,0,0.26458333,93.568902,135.21844)"
       x1="3.9282401"
       y1="18.735291"
       x2="6.9605827"
       y2="23.618748" />
    <linearGradient
       inkscape:collect="always"
       id="linearGradient5343">
      <stop
         style="stop-color:#ffffff;stop-opacity:1;"
         offset="0"
         id="stop5345" />
      <stop
         style="stop-color:#ffffff;stop-opacity:0;"
         offset="1"
         id="stop5347" />
    </linearGradient>
  </defs>
  <sodipodi:namedview
     inkscape:window-maximized="0"
     inkscape:window-y="0"
     inkscape:window-x="0"
     inkscape:window-height="900"
     inkscape:window-width="1440"
     fit-margin-bottom="0"
     fit-margin-right="0"
     fit-margin-left="0"
     fit-margin-top="0"
     showgrid="false"
     inkscape:document-rotation="0"
     inkscape:current-layer="layer1"
     inkscape:document-units="mm"
     inkscape:cy="648.35496"
     inkscape:cx="-358.17855"
     inkscape:zoom="0.35102624"
     inkscape:pageshadow="2"
     inkscape:pageopacity="0.0"
     borderopacity="1.0"
     bordercolor="#666666"
     pagecolor="#ffffff"
     id="base" />
  <metadata
     id="metadata2001">
    <rdf:RDF>
      <cc:Work
         rdf:about="">
        <dc:format>image/svg+xml</dc:format>
        <dc:type
           rdf:resource="http://purl.org/dc/dcmitype/StillImage" />
        <dc:title></dc:title>
      </cc:Work>
    </rdf:RDF>
  </metadata>
  <g
     transform="translate(-93.114349,-136.69155)"
     id="layer1"
     inkscape:groupmode="layer"
     inkscape:label="Слой 1">
    <g
       transform="matrix(5.9026206,0,0,5.9026206,-456.50431,-670.14676)"
       id="g2643">
      <path
         sodipodi:nodetypes="cccccccc"
         inkscape:connector-curvature="0"
         id="path5802"
         d="m 98.013565,144.8842 c -0.549833,-0.75092 -1.217937,-1.22439 -2.053515,-1.45734 -0.758341,-0.20176 -1.39051,-0.42977 -1.921031,-1.04884 -0.61323,-1.39038 -0.08927,-2.53022 1.34693,-2.67177 0.899422,0.009 1.381197,0.42286 1.766464,1.15924 -0.204732,-1.21235 0.523233,-1.99008 1.523576,-2.00936 1.470231,-0.0842 2.441901,1.63811 1.387831,2.75945 -0.925008,1.1383 -1.925682,1.99652 -2.050255,3.26862 z"
         style="fill:#ff0100;fill-opacity:1;stroke:none;stroke-width:0.264583" />
      <path
         style="fill:#ff0000;fill-opacity:1;stroke:url(#radialGradient6089);stroke-width:1.4;stroke-linecap:round;stroke-linejoin:round;stroke-miterlimit:4;stroke-dasharray:none;stroke-opacity:1;filter:url(#filter5329)"
         d="m -6.341655,26.961056 c -2.078109,-2.838103 -4.603226,-4.627605 -7.761316,-5.508033 -2.86617,-0.762574 -5.25547,-1.624318 -7.26059,-3.964114 -2.31772,-5.255009 -0.33741,-9.563039 5.09076,-10.098059 3.39939,0.0327 5.22027,1.59823 6.6764,4.38139 -0.77379,-4.58211 1.977572,-7.52154 5.758396,-7.59441 5.556792,-0.31831 9.229227,6.19128 5.245334,10.429413 -3.496083,4.302226 -7.278156,7.545874 -7.748984,12.353813 z"
         id="path5804"
         inkscape:connector-curvature="0"
         sodipodi:nodetypes="cccccccc"
         transform="matrix(0.26458333,0,0,0.26458333,99.691461,137.75075)" />
      <path
         sodipodi:nodetypes="ccccscccccccccccsssccccccccsccccccc"
         inkscape:connector-curvature="0"
         id="path5806"
         d="M 40.383532,29.349597 V 3.22512 l -2.284107,0.0714 v 5.42476 c 0,0 -3.534429,-2.45038 -7.137834,-2.49824 -8.400584,-0.11159 -12.419831,5.9244 -12.419831,5.9244 -2.641462,4.236028 -2.524487,7.733271 -1.71308,11.706047 3.368971,8.346287 12.583507,11.508454 19.514129,15.200324 10.316471,5.567001 13.109731,11.969367 11.606831,20.417468 -1.55441,4.597562 -4.415206,7.68775 -7.708865,10.278481 -4.382047,2.82605 -9.376912,3.7999 -14.782152,3.82041 C 16.646352,72.90381 7.848068,67.241292 6.264685,58.757496 c -1.67159,-8.077439 0.0021,-15.172608 6.843662,-19.582159 2.972628,-1.836969 5.183866,-1.894401 8.57406,-1.403073 3.378694,0.73749 5.323349,2.510674 6.281294,4.996483 1.272802,2.42388 0.627756,4.68794 -0.356891,6.923699 -0.119105,0.09112 -0.384289,0.772626 -0.881343,1.190882 -0.36768,0.309391 -0.718114,0.39113 -1.078961,0.443471 -0.5207,0.07553 -1.109552,0.122419 -1.446517,0.288528 -0.768074,0.378626 -1.106389,0.969587 -1.026449,1.661661 0.157763,1.107033 1.4853,1.752475 4.076377,1.340564 C 33.848991,52.63027 34.276783,45.31488 32.246401,41.198424 28.263227,34.975288 21.038246,34.813708 15.73082,35.556194 8.58061,37.377271 2.621982,43.406363 1.916893,49.842393 0.157505,64.706785 9.68008,73.56738 24.53754,75.46002 c 6.214627,0.25934 10.973242,-0.48279 16.122275,-2.70384 5.189605,-2.66397 8.992375,-5.596563 11.623126,-11.274548 1.38807,-4.668299 1.39202,-8.072093 0.72231,-12.142492 C 52.318671,45.166164 49.0731,41.232441 44.808988,38.70018 37.862741,34.215937 30.895462,30.724199 24.163691,25.914669 20.602572,23.497231 20.056814,19.920038 20.397597,16.001868 21.747389,10.52629 24.379367,8.20764 31.818131,8.36438 c 3.6588,0.89463 5.767624,3.18399 6.281294,5.995786 v 14.989451 z"
         style="fill:#00aaff;fill-opacity:1;fill-rule:nonzero;stroke:#000000;stroke-opacity:1;filter:url(#filter5764)"
         transform="matrix(0.26458333,0,0,0.26458333,99.691461,137.75075)" />
      <path
         style="fill:#00aaff;fill-opacity:1;fill-rule:nonzero;stroke:none;stroke-width:0.264583"
         d="m 110.37627,145.51616 v -6.9121 l -0.60434,0.0189 v 1.43531 c 0,0 -0.93515,-0.64833 -1.88855,-0.661 -2.22265,-0.0295 -3.28608,1.5675 -3.28608,1.5675 -0.69889,1.12078 -0.66794,2.04609 -0.45325,3.09723 0.89137,2.20828 3.32939,3.04494 5.16311,4.02175 2.72957,1.47293 3.46862,3.16689 3.07098,5.40212 -0.41127,1.21644 -1.16819,2.03405 -2.03964,2.71951 -1.15942,0.74773 -2.48098,1.00539 -3.91111,1.01082 -2.33158,-0.17631 -4.65946,-1.67452 -5.0784,-3.91919 -0.44227,-2.13715 5.6e-4,-4.01442 1.81072,-5.18111 0.78651,-0.48603 1.37157,-0.50123 2.26855,-0.37123 0.89395,0.19513 1.40847,0.66428 1.66193,1.32199 0.33676,0.64132 0.16609,1.24035 -0.0944,1.83189 -0.0315,0.0241 -0.10167,0.20443 -0.23319,0.31509 -0.0973,0.0819 -0.19,0.10349 -0.28547,0.11734 -0.13777,0.02 -0.29357,0.0324 -0.38273,0.0763 -0.20321,0.10017 -0.29273,0.25653 -0.27158,0.43964 0.0417,0.29291 0.39299,0.46368 1.07854,0.35469 1.74601,-0.5258 1.8592,-2.46133 1.32199,-3.55047 -1.05388,-1.64654 -2.96549,-1.68929 -4.36975,-1.49284 -1.89182,0.48182 -3.46838,2.07702 -3.65493,3.77989 -0.465506,3.93287 2.05401,6.27723 5.98505,6.77799 1.64428,0.0686 2.90333,-0.12773 4.26568,-0.71539 1.37308,-0.70484 2.37923,-1.48075 3.07529,-2.98306 0.36726,-1.23515 0.3683,-2.13574 0.19111,-3.2127 -0.18166,-1.1041 -1.04038,-2.14489 -2.1686,-2.81489 -1.83786,-1.18645 -3.68128,-2.11031 -5.4624,-3.38283 -0.94221,-0.63961 -1.08661,-1.58608 -0.99644,-2.62276 0.35713,-1.44875 1.05351,-2.06223 3.02168,-2.02075 0.96806,0.2367 1.52602,0.84243 1.66192,1.58638 v 3.96596 z"
         id="path5808"
         inkscape:connector-curvature="0"
         sodipodi:nodetypes="ccccscccccccccccsssccccccccsccccccc" />
      <path
         style="fill:#00aaff;fill-opacity:1;stroke:#000000;stroke-opacity:1;filter:url(#filter5768)"
         d="m -6.955234,73.25373 h -4.905557 v 2.03293 H 3.165232 l -0.0442,-2.03293 h -4.065869 l -1.850793,-1.72579 0.04419,-39.747948 2.955648,-3.825286 -1.679379,-1.502602 -10.42982,12.948893 1.63518,1.679378 3.447145,-4.24264 z"
         id="path5810"
         inkscape:connector-curvature="0"
         sodipodi:nodetypes="cccccccccccccc"
         transform="matrix(0.26458333,0,0,0.26458333,99.691461,137.75075)" />
      <path
         sodipodi:nodetypes="cccccccccccccc"
         inkscape:connector-curvature="0"
         id="path5812"
         d="m 97.851222,157.13247 h -1.297929 v 0.53788 h 3.975637 l -0.0117,-0.53788 h -1.075757 l -0.489689,-0.45662 0.01169,-10.51664 0.782015,-1.01211 -0.444336,-0.39756 -2.759556,3.42606 0.432641,0.44433 0.912057,-1.12253 z"
         style="fill:#00aaff;fill-opacity:1;stroke:none;stroke-width:0.264583" />
      <path
         sodipodi:nodetypes="cccccccc"
         inkscape:connector-curvature="0"
         id="use5814"
         d="m 98.013565,144.8842 c -0.549833,-0.75092 -1.217937,-1.22439 -2.053516,-1.45734 -0.75834,-0.20176 -1.390509,-0.42976 -1.92103,-1.04883 -0.61323,-1.39039 -0.08927,-2.53023 1.346929,-2.67178 0.899423,0.009 1.381197,0.42286 1.766466,1.15924 -0.204732,-1.21235 0.523232,-1.99007 1.523575,-2.00935 1.470231,-0.0842 2.441901,1.63811 1.387831,2.75944 -0.925008,1.1383 -1.925682,1.99652 -2.050255,3.26862 z"
         style="fill:#ff0100;fill-opacity:1;fill-rule:evenodd;stroke:none;stroke-width:0.264583" />
      <path
         style="fill:url(#linearGradient6091);fill-opacity:1;stroke:none;stroke-width:0.264583"
         d="m 94.153554,141.66057 c -0.02931,-1.01832 0.418164,-1.80289 1.970278,-1.37978 -1.093766,-0.0354 -1.588103,-0.0722 -1.970278,1.37978 z"
         id="path5816"
         inkscape:connector-curvature="0"
         sodipodi:nodetypes="ccc" />
    </g>
  </g>
</svg>
