<?xml version="1.0" encoding="UTF-8"?>
<!DOCTYPE svg  PUBLIC '-//W3C//DTD SVG 20010904//EN'  'http://www.w3.org/TR/2001/REC-SVG-20010904/DTD/svg10.dtd'>
<svg width="300px" height="300px" version="1.0" viewBox="0 0 3e3 3e3" xmlns="http://www.w3.org/2000/svg">
<g fill="#39373b">
<path d="m265 2861c-72-34-114-78-144-148l-21-52 2-1163 3-1163 27-51c31-58 71-96 133-124 43-20 70-20 1234-20 1179 0 1190 0 1238 21 55 23 94 57 132 114l26 40 3 1185 2 1185-28 54c-33 65-79 104-152 131-53 20-82 20-1225 20l-1170-1-60-28z"/>
</g>
<g fill="#c00">
<path d="m1540 1613c-47-8-135-44-190-77-155-94-203-99-330-34-67 34-83 39-91 27-5-8-9-17-9-20 0-11 77-57 141-85 56-23 74-26 146-22 45 2 87 9 95 15 25 21 156 84 205 98 72 22 143 27 196 15 98-22 248-143 298-242 30-58 51-172 44-232-21-168-149-398-238-424-18-5-51-15-74-21-71-19-54-45 60-91l58-23 27 24c91 78 166 179 200 269 96 254 80 403-65 597-74 99-175 189-241 213-50 19-161 25-232 13z"/>
<path d="m834 1480c-35-14-92-89-110-144-25-78-30-235-10-275 20-38 37-46 65-31 26 14 26 25 0 80-39 81-10 253 56 324 47 52 47 66-1 46z"/>
<path d="m904 1381c-60-91-78-249-41-360 23-69 39-84 56-53 7 13 6 35-4 73-8 30-15 76-15 102 0 51 29 150 62 209 40 71-12 97-58 29z"/>
<path d="m1059 1323c-35-39-53-70-72-127-40-118 0-284 65-274 39 6 42 30 13 92-50 105-46 186 11 262 20 25 33 52 30 60-8 21-19 17-47-13z"/>
</g>
<g>
<path d="m265 2861c-72-34-114-78-144-148l-21-52 2-1163 3-1163 27-51c31-58 71-96 133-124 43-20 70-20 1234-20 1179 0 1190 0 1238 21 55 23 94 57 132 114l26 40 3 1185 2 1185-28 54c-33 65-79 104-152 131-53 20-82 20-1225 20l-1170-1-60-28zm2482-31c28-16 63-45 77-63 59-78 56-3 56-1250 0-848-3-1153-12-1178-20-58-58-107-111-141l-52-33-1189-3-1190-2-51 25c-58 28-94 63-124 120-21 40-21 40-21 1203 0 1292-5 1199 68 1276 20 21 55 47 77 57 38 18 91 19 1230 19h1190l52-30z"/>
</g>
<g>
<path d="m265 2861c-72-34-114-78-144-148l-21-52 2-1163 3-1163 27-51c31-58 71-96 133-124 42-19 66-20 607-19 310 1 552 4 538 8s-265 9-559 10c-446 2-541 5-570 17-51 21-109 81-137 139l-24 50v1141c0 1256-3 1189 62 1268 18 23 57 50 92 67l61 29h1167 1167l53-24c29-13 70-41 90-62 73-77 68 16 68-1276 0-1163 0-1163-21-1203-29-55-62-88-117-118l-47-26-580-3c-319-1-600-5-625-9-25-3 235-7 577-7 607-2 622-2 670 19 55 23 94 57 132 114l26 40 3 1185 2 1185-28 54c-33 65-79 104-152 131-53 19-83 20-1225 19h-1170l-60-28z"/>
</g>
<g fill="#f8b003">
<path d="m1385 1229c-45-14-149-73-146-84 3-17 53-9 119 19 113 49 159 17 81-55-46-43-45-50 13-68 43-14 61-32 52-55-9-24-49-30-112-16-82 18-106 18-110-1-6-32 145-76 197-58 71 25 70 123-2 152l-32 14 30 15c39 21 62 46 70 80 5 21 2 30-17 42-29 19-102 26-143 15z"/>
</g>
<g>
<path d="m265 2861c-72-34-114-78-144-148l-21-52 2-1163 3-1163 27-51c31-58 71-96 133-124 41-19 64-20 367-18 201 1 295 4 248 8-41 4-185 8-320 9-218 1-250 4-287 21-56 25-100 71-130 135l-23 53 2 1158 3 1159 27 47c16 25 45 60 65 77 70 58 94 61 457 63 182 0 311 4 286 8-25 3-178 7-340 8l-295 1-60-28z"/>
<path d="m1925 2880c-27-4 129-8 347-8 395-2 398-2 450-26 29-13 70-41 90-62 73-77 68 16 68-1276 0-1163 0-1163-21-1203-30-56-66-93-121-121-47-24-52-24-335-25-158-1-322-5-363-9-45-4 70-7 287-8 345-2 364-1 410 19 55 23 94 57 132 114l26 40 3 1185 2 1185-28 54c-33 65-79 104-152 131-51 19-78 20-400 18-190 0-367-4-395-8z"/>
</g>
<g fill="#edf0f5">
<path d="m483 2403c-20-4-23-10-23-54v-50l43 6c29 4 48 2 62-9 18-13 20-28 23-195l3-181h-40-41v-45-45h111 110l-3 238c-3 215-5 240-23 270-35 58-124 84-222 65z"/>
<path d="m1402 2240c-60-37-77-125-37-187 23-35 91-62 177-71 64-6 73-10 73-27 0-43-90-58-181-30-27 8-50 15-51 15-2 0-3-22-3-50 0-49 0-49 38-57 20-4 80-8 132-8 76 1 104 5 135 21 66 34 75 64 75 247v157h-70c-64 0-70-2-70-21 0-20 0-20-32 2-46 33-141 38-186 9zm201-84c12-9 17-27 17-60v-46l-42 6c-67 10-93 25-96 57-2 16 2 35 9 43 15 18 88 18 112 0z"/>
<path d="m970 2025v-225h-85-85v-55-55h245 245v55 55h-90-90v225 225h-70-70v-225z"/>
<path d="m1880 1960v-290h70 70v290 290h-70-70v-290z"/>
<path d="m2140 1960v-290h65 65l2 173 3 172 140-184 73-1c39 0 72 3 72 6s-28 40-62 82-65 82-69 88c-5 6 23 56 66 119 41 60 75 113 75 117s-33 8-74 8h-75l-48-77c-26-42-51-81-55-87s-14-4-27 8c-17 16-21 31-21 88v68h-65-65v-290z"/>
<path d="m580 1720v-50h75 75v50 50h-75-75v-50z"/>
</g>
</svg>
