<?xml version="1.0" encoding="UTF-8"?>
<svg version="1.0" viewBox="0 0 424.84 208.16" xmlns="http://www.w3.org/2000/svg" xmlns:cc="http://creativecommons.org/ns#" xmlns:dc="http://purl.org/dc/elements/1.1/" xmlns:rdf="http://www.w3.org/1999/02/22-rdf-syntax-ns#" xmlns:xlink="http://www.w3.org/1999/xlink">
<metadata>
<rdf:RDF>
<cc:Work rdf:about="">
<dc:format>image/svg+xml</dc:format>
<dc:type rdf:resource="http://purl.org/dc/dcmitype/StillImage"/>
<dc:title/>
</cc:Work>
</rdf:RDF>
</metadata>
<defs>
<linearGradient id="b" x1="12" x2="150" y1="-103.5" y2="-103.5" gradientTransform="translate(0,131)" gradientUnits="userSpaceOnUse">
<stop stop-color="#0493ce" offset="0"/>
<stop stop-color="#b4e9ff" offset=".5"/>
<stop stop-color="#049ad8" offset="1"/>
</linearGradient>
<linearGradient id="a" x1="10.842" x2="151.16" y1="50.125" y2="50.125" gradientUnits="userSpaceOnUse">
<stop stop-color="#fff" offset="0"/>
<stop stop-color="#fff" offset="1"/>
</linearGradient>
<filter id="d" color-interpolation-filters="sRGB">
<feFlood flood-color="rgb(0,0,0)" flood-opacity=".49804" result="flood"/>
<feComposite in="flood" in2="SourceGraphic" operator="in" result="composite1"/>
<feGaussianBlur in="composite1" result="blur" stdDeviation="1"/>
<feOffset dx="0" dy="1.5" result="offset"/>
<feComposite in="SourceGraphic" in2="offset" result="composite2"/>
</filter>
<filter id="c" color-interpolation-filters="sRGB">
<feFlood flood-color="rgb(0,0,0)" flood-opacity=".49804" result="flood"/>
<feComposite in="flood" in2="SourceGraphic" operator="in" result="composite1"/>
<feGaussianBlur in="composite1" result="blur" stdDeviation="1"/>
<feOffset dx="0" dy="1.5" result="offset"/>
<feComposite in="SourceGraphic" in2="offset" result="composite2"/>
</filter>
</defs>
<g transform="matrix(3.0277 0 0 3.0277 -32.826 -47.686)" stroke-linejoin="bevel">
<rect x="12.5" y="20.5" width="137" height="14" rx="3.971" ry="4" fill="url(#b)" filter="url(#c)" stroke="#1e88b4"/>
<path d="m41 84c-39-18-35-59-14-60 11-1 25 10 31 17 6-33 40-33 46 0 6-7 20-18 31-17 21 1 25 42-14 60 34-47-1-61-24-15 3-48-35-48-32 0-23-46-58-32-24 15z" fill="url(#a)" filter="url(#d)" stroke="#3f8ebc" stroke-opacity=".49661" stroke-width="1px"/>
</g>
</svg>
