<?xml version="1.0" encoding="UTF-8" standalone="no"?>
<svg
   xmlns:dc="http://purl.org/dc/elements/1.1/"
   xmlns:cc="http://creativecommons.org/ns#"
   xmlns:rdf="http://www.w3.org/1999/02/22-rdf-syntax-ns#"
   xmlns:svg="http://www.w3.org/2000/svg"
   xmlns="http://www.w3.org/2000/svg"
   xmlns:sodipodi="http://sodipodi.sourceforge.net/DTD/sodipodi-0.dtd"
   xmlns:inkscape="http://www.inkscape.org/namespaces/inkscape"
   inkscape:version="1.0 (unknown)"
   height="223"
   width="223"
   sodipodi:docname="movim.svg"
   id="svg23"
   viewBox="0 0 223 223"
   version="1.1">
  <metadata
     id="metadata27">
    <rdf:RDF>
      <cc:Work
         rdf:about="">
        <dc:format>image/svg+xml</dc:format>
        <dc:type
           rdf:resource="http://purl.org/dc/dcmitype/StillImage" />
      </cc:Work>
    </rdf:RDF>
  </metadata>
  <sodipodi:namedview
     inkscape:current-layer="svg23"
     inkscape:window-maximized="0"
     inkscape:window-y="0"
     inkscape:window-x="0"
     inkscape:cy="111.5"
     inkscape:cx="111.5"
     inkscape:zoom="2.9791667"
     showgrid="false"
     id="namedview25"
     inkscape:window-height="940"
     inkscape:window-width="1852"
     inkscape:pageshadow="2"
     inkscape:pageopacity="0"
     guidetolerance="10"
     gridtolerance="10"
     objecttolerance="10"
     borderopacity="1"
     bordercolor="#666666"
     pagecolor="#ffffff" />
  <defs
     id="defs15">
    <filter
       height="1.489"
       width="1.285"
       y="-0.244"
       x="-0.142"
       id="c">
      <feGaussianBlur
         id="feGaussianBlur2"
         stdDeviation="10.686" />
    </filter>
    <linearGradient
       gradientTransform="translate(-8.5,-8.5)"
       gradientUnits="userSpaceOnUse"
       y2="200"
       y1="40"
       x2="200"
       x1="40"
       id="b">
      <stop
         id="stop5"
         offset="0"
         stop-color="#345cca" />
      <stop
         id="stop7"
         offset="1"
         stop-color="#5d47c6" />
    </linearGradient>
    <linearGradient
       gradientTransform="translate(-8.5,-8.5)"
       gradientUnits="userSpaceOnUse"
       y2="210.10001"
       y1="65"
       x2="174.95"
       x1="125"
       id="a">
      <stop
         id="stop10"
         offset="0"
         stop-color="#344394" />
      <stop
         id="stop12"
         offset="1"
         stop-color="#7c45df" />
    </linearGradient>
  </defs>
  <circle
     style="fill:url(#b);stroke:url(#a)"
     id="circle17"
     stroke-width="3"
     stroke="url(#a)"
     fill="url(#b)"
     r="110"
     cy="111.5"
     cx="111.5" />
  <path
     id="path19"
     filter="url(#c)"
     opacity="0.45896"
     fill="#332949"
     d="m 112.916,82.039 c -20.51,0 -37.137,16.627 -37.137,37.137 0,1.594 0.10688,3.1707 0.30171,4.7118 -0.29375,-0.009 -0.58624,-0.0232 -0.88201,-0.0232 -17.434,-7e-5 -31.567,14.133 -31.567,31.567 0,17.434 14.133,31.567 31.567,31.567 h 122.44 c 14.357,0 25.996,-11.639 25.996,-25.996 0,-14.357 -11.639,-25.996 -25.996,-25.996 -0.0468,0 -0.093,-2.5e-4 -0.13928,0 0.0334,-0.64832 0.0696,-1.293 0.0696,-1.9497 0,-20.51 -16.627,-37.137 -37.137,-37.137 -5.7242,0 -11.15,1.3077 -15.992,3.6209 -6.5596,-10.507 -18.221,-17.501 -31.52,-17.501 z"
     transform="matrix(0.91667,0,0,0.91667,-8.5,-8.5)" />
  <path
     id="path21"
     fill="#ffffff"
     d="m 93.09,64.85 c -18.232,0 -33.011,14.78 -33.011,33.011 0,1.4169 0.095,2.8184 0.26819,4.1883 -0.26111,-0.008 -0.5211,-0.0206 -0.78401,-0.0206 -15.497,-9e-5 -28.059,12.562 -28.059,28.059 0,15.497 12.563,28.059 28.059,28.059 h 108.83 c 12.762,0 23.108,-10.346 23.108,-23.108 0,-12.762 -10.346,-23.108 -23.108,-23.108 -0.0416,0 -0.0827,-2.2e-4 -0.1238,0 0.0297,-0.57629 0.0619,-1.1493 0.0619,-1.7331 0,-18.231 -14.78,-33.011 -33.011,-33.011 -5.0882,0 -9.9111,1.1624 -14.215,3.2186 -5.8308,-9.3396 -16.197,-15.556 -28.018,-15.556 z" />
</svg>
