<?xml version="1.0" encoding="UTF-8"?>
<svg width="248.76" height="319.63" version="1.0" viewBox="0 0 2487.6312 3196.3065" xmlns="http://www.w3.org/2000/svg" xmlns:cc="http://creativecommons.org/ns#" xmlns:dc="http://purl.org/dc/elements/1.1/" xmlns:rdf="http://www.w3.org/1999/02/22-rdf-syntax-ns#" xmlns:xlink="http://www.w3.org/1999/xlink">
<metadata>
<rdf:RDF>
<cc:Work rdf:about="">
<dc:format>image/svg+xml</dc:format>
<dc:type rdf:resource="http://purl.org/dc/dcmitype/StillImage"/>
<dc:title/>
</cc:Work>
</rdf:RDF>
</metadata>
<defs>
<linearGradient id="b" x1="57.229" x2="57.229" y1="139.78" y2="260.18" gradientTransform="matrix(10 0 0 10 -2.3687 .12527)" gradientUnits="userSpaceOnUse">
<stop stop-color="#791b0d" offset="0"/>
<stop stop-color="#db3116" offset="1"/>
</linearGradient>
<linearGradient id="a" x1="21.799" x2="2285" y1="859.13" y2="859.13" gradientTransform="translate(-2.3687 .12527)" gradientUnits="userSpaceOnUse">
<stop stop-color="#221a1b" offset="0"/>
<stop stop-color="#a72229" offset="1"/>
</linearGradient>
</defs>
<path d="m567.63 1859.1c-66-30-81-46-69-76 14-36 99-523 99-565 0-51 18-63 77-49 39 10 57 9 98-4 73-22 81-20 141 32 71 61 83 97 59 179-35 125-170 294-233 294-16 0-35-7-43-16-12-14-14-14-21 5-4 12-10 52-13 89-12 130-23 143-95 111zm201-392c68-93 100-187 64-187-22 0-67 24-86 46-9 11-21 48-28 84-6 36-14 78-17 93-6 27-4 28 15 17 12-6 35-30 52-53z" fill="#221a1b"/>
<path d="m2062.6 1868.1c-39-21-75-62-75-85 0-13 20-137 45-276 25-140 45-272 45-295 0-33 5-45 25-58 24-16 27-15 66 12l41 28 62-23c97-37 99-37 145 4 23 21 41 45 41 55 0 26-33 50-69 50-18 0-65 14-105 30l-73 30-11 64c-17 89-17 88 24 69 26-13 39-14 52-7 26 16 62 74 62 99 0 24-44 60-60 50-12-7-105 32-120 50-6 8-13 51-16 97-3 69-7 86-25 101-25 20-27 20-54 5z" fill="#221a1b"/>
<path d="m979.63 1859.1c-28-8-33-14-29-32 3-12 29-157 57-322 29-167 59-306 66-314 11-12 22-13 63-3 45 10 56 9 118-14 91-34 118-28 176 39 24 28 47 62 51 74 15 49-59 154-172 246l-34 27c50.591 63.901 81.786 100.15 139 157 13 9 23 20 23 27 0 6-21 35-46 64-58 66-82 68-118 10-14-24-52-71-84-106l-59-63-12 73c-6 40-12 89-14 108-2 34-3 35-47 37-25 1-60-3-78-8zm240-421c47-37 118-124 118-144 0-8-7-14-16-14-19 0-117 54-132 73-12 15-27 117-17 117 4 0 25-14 47-32z" fill="#221a1b"/>
<path d="m1532.6 1848.1c-29-15-85-70-85-82 0-14 115-157 290-362 74-87 147-175 163-196 17-25 35-38 50-38 25 0 97 55 97 74 0 6-23 34-51 61-95 93-390 459-403 501-11 36-38 54-61 42z" fill="#221a1b"/>
<path d="m1743.6 1826.1c-30-28-36-40-36-76 0-39 5-49 53-95 83-84 167-94 206-24 29 52-19 153-98 206-48 33-83 29-125-11zm99-69c32-32 54-81 42-93-18-18-97 71-97 108 0 27 18 22 55-15z" fill="#221a1b"/>
<path d="m19.43 1402.5c257.59-1331.2 1320.7-1307.3 2263.2-634.39l-105 61c-58 34-112 61-121 61s-40-8-70-18c-47-16-61-16-104-6-27 7-81 13-120 13-69 1-71 2-128 51-56 48-61 50-118 50-51 0-67-5-123-40l-65-39-49 44c-28 25-57 45-66 45s-39-9-68-20c-34-13-76-20-118-19h-65l-48 59c-41 51-54 60-98 69-70 15-74 15-142-23-44-24-79-35-122-39l-61-5-31 58c-44 79-55 134-42 205l11 58-71.128 70.162zm347.2-630.39c19-24 31-45 29-47-3-3-18 14-35 38-59 83-55 89 6 9z" fill="url(#a)"/>
<path d="m1552.6 1385.1c-19-18-25-35-25-66 0-39 5-48 54-95 81-79 161-87 193-19 55 114-135 268-222 180zm119-85c35-38 47-70 26-70-16 0-90 76-90 93 0 28 26 19 64-23z" fill="#221a1b"/>
<path d="m1145.6 3190.1c-424-72-767-480-1003-1195-49-151-117-416-136-532-12-71-11-73 31-205 130-410 322-749 565-994 103-105 184-161 294-203 239-92 561-80 895 35 193 67 443 201 569 306 83 70 127 172 127 295 0 59-2 63-34 88l-35 27-68-22-68-22-105 61c-196.34-311.96-496.32-285.66-936-364-240.73 25.705-636.68 136.84-848 257-16-15-215.11 362.13-285.11 536.13-73.76 137.25-43.586 169.29-26 269l170.89 472.18-33.365 66.99 75.581 10.7c590.03 204.03 1489.4 181.78 1489.4 181.78l124.56 32.216c52.642-30.741 93.112-55.07 141-85-92.298 762.4-498.98 1036.2-905 984z" fill="#b41a1c"/>
<path d="m676.81 2534.5c772.52 149.13 834.65 83.131 890.38-324.08 65.766 13.586 143.86 31.303 217.88 48.486-377.22 801.79-777.72 542.55-1108.3 275.59z" fill="#67170a"/>
<path d="m61.248 1401.7c-2.169 164.83 108.61 423.84 176.75 631.04 32.064-57.908 68.031-108.76 71.02-182.38-2.6828-75.401-15.609-111.14-42.305-176.91 49.545-83.767 66.266-90.776 66.25-132.44 0.8967-47.674-14.704-59.613-5.039-103.42 10.492-14.384 20.795-24.136 33.477-37.129-9.8e-4 0.01-300.15 1.2411-300.15 1.2411zm445.15 598.13c-49.318 19.552-129.27 87.92-133.28 85.84 0 0-82.664-9.339-123.4-15.628 106.6 165.15 209.74 326.28 377.74 439.08 77.535 32.442 146.71 57.278 234.95 74.65 117.71 21.018 165.93 16.092 242.08 22.484 57.507 4.8267 152.96 4.7679 190.7-0.117 153.57-19.877 215.08-93.471 254.38-287.27 6.6307-32.698 18.837-107.38 17.566-108.44-1.0441-0.87-143.75-36.6-186.92-46.754-40.884-9.6163-68.433-21.549-110.08-47.695-63.786-39.898-76.835-34.283-130.35-29.785-103.39-2.2317-80.26 3.3284-279.73-55.938-55.044 31.216-72.37 43.266-131.54 70.137-97.4-37.843-191.34-94.27-222.11-100.57z" fill="url(#b)" opacity=".999" stroke-width=".79903"/>
<g transform="translate(-2.3687 .12527)" fill="#fff">
<path d="m1100 2815c-75-21-203-91-329-180-113-80-166-124-157-132 3-3 26 0 52 7 31 9 65 30 103 65 49 46 67 56 139 75 67 18 86 28 104 52l21 30 95-7c86-6 94-6 89 9-4 10-3 15 3 11 6-3 10-13 10-22 0-10 5-13 18-8 41 16 72 16 132 0 55-14 74-25 122-73 55-53 58-59 70-131 11-65 19-83 63-140l51-66 63-3 63-3-42 78c-69 127-170 274-229 334-47 46-69 60-136 83-101 35-225 43-305 21z"/>
<path d="m2120 845c-7-9-3-28 15-70 14-32 24-59 22-61s-16 23-30 57l-26 61-48-40c-27-21-58-42-70-46-14-5-23-16-24-29-1-17-2-18-6-4-2 9-9 17-16 17-6 0-70-18-143-40s-142-40-154-40c-22 0-22-2-15-102 9-143 7-139 63-131 239 31 430 143 560 329l22 32-70 40c-54 31-72 37-80 27zm-142-260c0-22-3-19-9 15-10 60-9 108 2 55 4-22 8-53 7-70z"/>
<path d="m419 827c-18-11-35-21-36-22-2-1 3-25 11-54 9-33 26-65 47-88 43-44 149-125 160-121 5 2 19 23 31 48 15 30 39 55 70 75 26 17 48 32 48 35s-21 29-46 58c-50 57-71 63-120 33-30-18-31-18-55 0-77 62-71 60-110 36z"/>
<path d="m706 658c-33-20-53-42-70-79l-25-51 52-23c51-24 218-75 242-75 18 0 29 148 13 168-7 8-47 31-90 52l-77 37z"/>
<path d="m1460 626c-82-16-104-22-162-48l-48-21v-147h191c176 0 190 1 185 18-2 9-7 61-11 115l-7 97-41-1c-23-1-71-7-107-13z"/>
<path d="m1018 576c-37-15-60-20-67-13-11 11-25-63-19-109 3-27 6-29 58-36 30-3 99-6 153-7l97-1v146l-39 22c-50 29-111 28-183-2z"/>
</g>
</svg>
