<?xml version="1.0" encoding="UTF-8"?>
<svg width="210mm" height="297mm" version="1.1" viewBox="0 0 210 297" xmlns="http://www.w3.org/2000/svg" xmlns:cc="http://creativecommons.org/ns#" xmlns:dc="http://purl.org/dc/elements/1.1/" xmlns:rdf="http://www.w3.org/1999/02/22-rdf-syntax-ns#">
<metadata>
<rdf:RDF>
<cc:Work rdf:about="">
<dc:format>image/svg+xml</dc:format>
<dc:type rdf:resource="http://purl.org/dc/dcmitype/StillImage"/>
<dc:title/>
</cc:Work>
</rdf:RDF>
</metadata>
<g>
<g transform="translate(2.0045)" aria-label="QIP">
<g transform="matrix(11.81 0 0 11.919 -766.86 -1057.7)" stroke="#000" aria-label="qp">
<path d="m73.334 99.608v6.9929h0.78031v0.67855h-3.4572v-0.67855h0.84749v-2.4674q-0.23254 0.46545-0.63045 0.69537-0.39274 0.22431-0.97152 0.22431-1.1679 0-1.8397-0.84117-0.66663-0.84118-0.66663-2.3048 0-1.4692 0.66663-2.3048 0.67179-0.83556 1.8397-0.83556 0.57878 0 0.97152 0.22992 0.39791 0.22431 0.63045 0.68976v-0.75706h2.6097v0.67854zm-1.8293 2.0076q0-1.043-0.24805-1.5085-0.24805-0.46544-0.79065-0.46544-0.56844 0-0.80098 0.49348-0.22738 0.48788-0.22738 1.7721t0.23254 1.7777q0.23254 0.49349 0.79582 0.49349 0.5426 0 0.79065-0.46545t0.24805-1.5085z" fill="#009e00" stroke-width=".27562px"/>
<path d="m76.263 101.63v0.58999q0 1.0451 0.24288 1.5115 0.24805 0.46638 0.79582 0.46638 0.56327 0 0.79065-0.49447 0.23254-0.49447 0.23254-1.7812t-0.23254-1.7756q-0.22738-0.49447-0.79065-0.49447-0.54777 0-0.79582 0.46637-0.24288 0.46637-0.24288 1.5115zm-1.8293-2.0116h-0.78548v-0.67989h2.6148v0.75856q0.23254-0.46637 0.62528-0.69113 0.39274-0.23038 0.97152-0.23038 1.1731 0 1.8448 0.84284 0.67696 0.83721 0.67696 2.3038t-0.67696 2.3094q-0.67179 0.84284-1.8448 0.84284-0.57878 0-0.97152-0.22476-0.39274-0.23037-0.62528-0.69675v2.4723h0.84749v0.67989h-3.4623v-0.67989h0.78548z" fill="#00a700" stroke-width=".276"/>
</g>
</g>
<path transform="translate(2.0045)" d="m84.838 234.55-19.59-127.72-6.6927-10.237v-10.431l89.927-0.51873 0.13948 11.98-6.6318 11.475-15.299 125.23z" fill="#cbf6e8" stroke="#000" stroke-width="7.505"/>
<path transform="translate(2.0045)" d="m87.106 230.77-16.658-114.43c25.464 11.109 40.178-9.7467 66.563 4.4899l-13.344 110.47z" fill="#d9d900"/>
</g>
</svg>
