<?xml version="1.0" encoding="UTF-8" standalone="no"?>
<svg
   xmlns:dc="http://purl.org/dc/elements/1.1/"
   xmlns:cc="http://creativecommons.org/ns#"
   xmlns:rdf="http://www.w3.org/1999/02/22-rdf-syntax-ns#"
   xmlns:svg="http://www.w3.org/2000/svg"
   xmlns="http://www.w3.org/2000/svg"
   xmlns:sodipodi="http://sodipodi.sourceforge.net/DTD/sodipodi-0.dtd"
   xmlns:inkscape="http://www.inkscape.org/namespaces/inkscape"
   inkscape:version="1.0 (unknown)"
   sodipodi:docname="qip.svg"
   id="svg18"
   viewBox="0 0 156.61348 156.45029"
   version="1.1"
   height="156.45029mm"
   width="156.61348mm">
  <defs
     id="defs22" />
  <sodipodi:namedview
     inkscape:current-layer="svg18"
     inkscape:window-maximized="0"
     inkscape:window-y="0"
     inkscape:window-x="0"
     inkscape:cy="251.83252"
     inkscape:cx="285.47805"
     inkscape:zoom="0.63695988"
     showgrid="false"
     id="namedview20"
     inkscape:window-height="971"
     inkscape:window-width="1317"
     inkscape:pageshadow="2"
     inkscape:pageopacity="0"
     guidetolerance="10"
     gridtolerance="10"
     objecttolerance="10"
     borderopacity="1"
     bordercolor="#666666"
     pagecolor="#ffffff" />
  <metadata
     id="metadata2">
    <rdf:RDF>
      <cc:Work
         rdf:about="">
        <dc:format>image/svg+xml</dc:format>
        <dc:type
           rdf:resource="http://purl.org/dc/dcmitype/StillImage" />
        <dc:title />
      </cc:Work>
    </rdf:RDF>
  </metadata>
  <g
     transform="translate(-29.467267,-81.869314)"
     id="g16">
    <g
       id="g10"
       aria-label="QIP"
       transform="translate(2.0045)">
      <g
         id="g8"
         aria-label="qp"
         stroke="#000000"
         transform="matrix(11.81,0,0,11.919,-766.86,-1057.7)">
        <path
           id="path4"
           stroke-width="0.27562px"
           fill="#009e00"
           d="m 73.334,99.608 v 6.9929 h 0.78031 v 0.67855 h -3.4572 v -0.67855 h 0.84749 v -2.4674 q -0.23254,0.46545 -0.63045,0.69537 -0.39274,0.22431 -0.97152,0.22431 -1.1679,0 -1.8397,-0.84117 -0.66663,-0.84118 -0.66663,-2.3048 0,-1.4692 0.66663,-2.3048 0.67179,-0.83556 1.8397,-0.83556 0.57878,0 0.97152,0.22992 0.39791,0.22431 0.63045,0.68976 v -0.75706 h 2.6097 v 0.67854 z m -1.8293,2.0076 q 0,-1.043 -0.24805,-1.5085 -0.24805,-0.46544 -0.79065,-0.46544 -0.56844,0 -0.80098,0.49348 -0.22738,0.48788 -0.22738,1.7721 0,1.28422 0.23254,1.7777 0.23254,0.49349 0.79582,0.49349 0.5426,0 0.79065,-0.46545 0.24805,-0.46545 0.24805,-1.5085 z" />
        <path
           id="path6"
           stroke-width="0.276"
           fill="#00a700"
           d="m 76.263,101.63 v 0.58999 q 0,1.0451 0.24288,1.5115 0.24805,0.46638 0.79582,0.46638 0.56327,0 0.79065,-0.49447 0.23254,-0.49447 0.23254,-1.7812 0,-1.28673 -0.23254,-1.7756 -0.22738,-0.49447 -0.79065,-0.49447 -0.54777,0 -0.79582,0.46637 -0.24288,0.46637 -0.24288,1.5115 z m -1.8293,-2.0116 h -0.78548 v -0.67989 h 2.6148 v 0.75856 q 0.23254,-0.46637 0.62528,-0.69113 0.39274,-0.23038 0.97152,-0.23038 1.1731,0 1.8448,0.84284 0.67696,0.83721 0.67696,2.3038 0,1.46659 -0.67696,2.3094 -0.67179,0.84284 -1.8448,0.84284 -0.57878,0 -0.97152,-0.22476 -0.39274,-0.23037 -0.62528,-0.69675 v 2.4723 h 0.84749 v 0.67989 h -3.4623 v -0.67989 h 0.78548 z" />
      </g>
    </g>
    <path
       id="path12"
       stroke-width="7.505"
       stroke="#000000"
       fill="#cbf6e8"
       d="M 84.838,234.55 65.248,106.83 58.5553,96.593 V 86.162 l 89.927,-0.51873 0.13948,11.98 -6.6318,11.475 -15.299,125.23 z"
       transform="translate(2.0045)" />
    <path
       id="path14"
       fill="#d9d900"
       d="M 87.106,230.77 70.448,116.34 c 25.464,11.109 40.178,-9.7467 66.563,4.4899 l -13.344,110.47 z"
       transform="translate(2.0045)" />
  </g>
</svg>
