<?xml version="1.0" encoding="UTF-8"?>
<svg version="1.1" viewBox="0 0 256 256" xmlns="http://www.w3.org/2000/svg" xmlns:cc="http://creativecommons.org/ns#" xmlns:dc="http://purl.org/dc/elements/1.1/" xmlns:rdf="http://www.w3.org/1999/02/22-rdf-syntax-ns#" xmlns:xlink="http://www.w3.org/1999/xlink">
<defs>
<filter id="g" color-interpolation-filters="sRGB">
<feGaussianBlur stdDeviation="26.153023"/>
</filter>
<filter id="f" color-interpolation-filters="sRGB">
<feGaussianBlur stdDeviation="3.6574608"/>
</filter>

<linearGradient id="e" x1="349.31" x2="892.97" y1="186.91" y2="835.43" gradientTransform="matrix(.25576 0 0 .25579 -.24234 783.2)" gradientUnits="userSpaceOnUse">
<stop stop-color="#fff" offset="0"/>
<stop stop-color="#27baf2" offset=".35141"/>
<stop stop-color="#0053cc" offset="1"/>
</linearGradient>
<radialGradient id="a" cx="-17.213" cy="-721.78" r="324.98" gradientTransform="matrix(-.30776 .11639 -.12457 -.32946 186.72 -1156.9)" gradientUnits="userSpaceOnUse">
<stop stop-color="#fff" offset="0"/>
<stop stop-color="#d3d3d3" offset=".71248"/>
<stop stop-color="#f6f6f6" offset="1"/>
</radialGradient>
<linearGradient id="c" x1="327.29" x2="886.88" y1="1031.2" y2="97.782" gradientTransform="matrix(.25576 0 0 .25579 -1.2879e-8 783.18)" gradientUnits="userSpaceOnUse">
<stop stop-color="#70757f" offset="0"/>
<stop stop-color="#d6dadf" offset=".30556"/>
<stop stop-color="#838289" offset=".32858"/>
<stop stop-color="#434343" offset=".77153"/>
<stop stop-color="#ddd" offset="1"/>
</linearGradient>
<linearGradient id="b" x1="418" x2="996.01" y1="768.76" y2="65.689" gradientTransform="translate(-20.947 10.09)" gradientUnits="userSpaceOnUse">
<stop offset="0"/>
<stop stop-color="#838383" offset="1"/>
</linearGradient>
</defs>
<metadata>
<rdf:RDF>
<cc:Work rdf:about="">
<dc:format>image/svg+xml</dc:format>
<dc:type rdf:resource="http://purl.org/dc/dcmitype/StillImage"/>
<dc:title/>
</cc:Work>
</rdf:RDF>
</metadata>
<g transform="translate(0 -796.36)">
<path d="m172 796.57c-1.2568 0.0344-2.5262 0.32003-3.7465 0.87428l-162.57 73.83c-4.8814 2.217-7.0248 7.9357-4.8081 12.818l73.822 162.58c2.2168 4.8819 7.9349 7.0256 12.816 4.8086l162.57-73.83c4.8814-2.217 7.0249-7.9357 4.8081-12.818l-73.822-162.59c-1.6626-3.6614-5.2993-5.7859-9.0697-5.6828zm-6.4628 18.735c3.2181-0.088 6.316 1.7225 7.735 4.8476l63.012 138.77c1.892 4.1668 0.0686 9.0441-4.0978 10.936l-138.75 63.018c-4.1663 1.8922-9.0432 0.069-10.935-4.0982l-63.012-138.77c-1.892-4.1668-0.06854-9.0441 4.0978-10.936l138.75-63.018c1.0416-0.47306 2.1275-0.72006 3.2002-0.74938z" fill="#800000"/>
<path d="m172 796.57c-1.2568 0.0344-2.5282 0.32504-3.7485 0.87928l-162.57 73.828c-4.8814 2.217-7.0283 7.9398-4.8115 12.822l73.828 162.58c2.2168 4.8819 7.9308 7.0291 12.812 4.8121l162.57-73.836c4.8814-2.217 7.0283-7.9318 4.8115-12.814l-73.828-162.59c-1.6626-3.6614-5.2932-5.7865-9.0636-5.6834zm-8.8238 25.579c3.0163-0.0825 5.9192 1.6192 7.2493 4.5483l59.065 130.07c1.7734 3.9056 0.0527 8.4741-3.8524 10.248l-130.06 59.072c-3.9051 1.7736-8.4731 0.053-10.247-3.8529l-59.065-130.07c-1.7734-3.9056-0.05266-8.4741 3.8524-10.248l130.06-59.072c0.97627-0.4434 1.9918-0.66795 2.9972-0.69544z" fill="url(#c)"/>
<rect transform="matrix(-.91049 .41353 -.41345 -.91053 0 0)" x="181.67" y="-978.72" width="168.22" height="168.23" rx="8.2257" ry="8.2264" fill="url(#a)"/>
<path transform="matrix(.24213 0 0 .25095 4.1323 787.48)" d="m485.82 330.14c1.6004 44.544-43.887 46.546-34.56-5.0146 10.687-59.077-27.481-85.661-63.943-107.01 74.058 100.43-14.61 100.61-48.96 229.57-11.655 43.758-21.168 88.89-4.48 127.55 4.7533 11.011 17.52 24.336 16.385 37.594-1.1871 13.865-8.4305 24.533-14.215 36.711-8.8065 18.539-25.423 35.361-32.979 51.987-4.1732 9.1822 6.1008 16.101 13.535 20.537 11.207 6.6865 26.719 8.8341 33.305 21.127 4.5887 8.5649 3.332 17.687-0.5404 25.982-3.6031 7.7186-6.2728 19.532 1.2106 24.672 5.501 3.7786 12.804 5.877 16.586 12.455 3.6507 6.3499 1.9293 13.945 7.7137 18.895 9.6395 8.2486 25.46 7.4693 32.75 24.631 3.3915 7.9836 5.6585 16.867 10.169 24.789 6.8331 12.001 25.951 15.687 39.135 14.314 14.186-1.4767 24.605-5.9388 38.232-10.286 35.322-11.267 68.452-26.198 99.952-46.795 26.728-17.478 42.546-27.386 66.586-41.8 17.183-10.302 42.244-6.8278 61.37-11.942 23.625-6.3168 52.491-16.21 69.268-33.414 17.727-18.178 24.979-32.543 30.54-66.054-7.6537 10.931-27.573 36.055-47.246 42.682-21.632 7.2867-29.351 3.5424-35.848-5.6442-5.5553-7.8559-6.9791-18.315-6.7233-27.95 12.883-43.777 68.249-25.551 105.47-40.644 67.743-27.473 83.349-89.882 87.51-138.88 2.272-26.756 5.4451-44.629 49.061-98.473-54.63 24.188-77.17 46.411-89.714 74.852-11.762 26.667-49.06 58.063-71.4 31.871-28.472-33.382 35.06-78.047 81.495-90.009 37.105-9.5585 71.467-47.772 78.886-84.681 18.631-128-39.637-184.99 4.7404-279.36-131.93 106.55-19.726 164.57-104.14 252.29-47.953 49.834-98.768 23.358-79.722-19.22 12.302-27.5 41.828-10.8 51.559-74.228-27.374 41.108-115.71 13.311-141.03 80.134-44.054 116.27-105.27 4.3633-4.9403-51.363 42.327-23.51 144.2-15.858 168.92-183.55-49.552 99.314-171.12 83.517-269.01 126.34-50.434 22.065-117.21 73.642-114.92 137.32z" fill="url(#b)" filter="url(#g)" opacity=".5"/>
<path d="m129.37 865.06c0.40932 11.394-11.225 11.906-8.8391-1.2827 2.7334-15.111-7.0286-21.911-16.354-27.372 18.941 25.688-3.7367 25.735-12.522 58.723-2.9809 11.193-5.4141 22.738-1.1458 32.626 1.2157 2.8164 4.4811 6.225 4.1907 9.6162-0.30362 3.5466-2.1562 6.2754-3.6357 9.3904-2.2524 4.7422-6.5023 9.0452-8.4349 13.298-1.0674 2.3487 1.5604 4.1186 3.4618 5.2532 2.8663 1.7104 6.8338 2.2597 8.5182 5.4041 1.1736 2.1908 0.8522 4.5242-0.13821 6.646-0.92154 1.9744-1.6044 4.9961 0.30963 6.311 1.407 0.96652 3.2748 1.5033 4.2421 3.1859 0.93371 1.6243 0.49344 3.5671 1.9729 4.8332 2.4654 2.11 6.5116 1.9106 8.3762 6.3004 0.86742 2.0422 1.4472 4.3144 2.6008 6.3408 1.7476 3.0698 6.6372 4.0125 10.009 3.6614 3.6284-0.3777 6.2931-1.5191 9.7784-2.631 9.034-2.8821 17.508-6.7012 25.564-11.97 6.8361-4.4707 10.882-7.0052 17.03-10.692 4.3947-2.6353 10.805-1.7465 15.696-3.0546 6.0424-1.6158 13.425-4.1464 17.716-8.5471 4.5339-4.6499 6.3888-8.3242 7.8109-16.896-1.9575 2.7961-7.052 9.2226-12.084 10.918-5.5325 1.8639-7.507 0.90613-9.1685-1.4437-1.4208-2.0095-1.785-4.685-1.7196-7.1495 3.2949-11.198 17.456-6.5357 26.974-10.396 17.326-7.0274 21.318-22.991 22.382-35.524 0.58109-6.8439 1.3926-11.416 12.548-25.189-13.972 6.1871-19.737 11.872-22.946 19.147-3.0082 6.8211-12.548 14.852-18.261 8.1523-7.2821-8.5388 8.9672-19.964 20.843-23.024 9.49-2.445 18.279-12.22 20.176-21.661 4.7651-32.742-10.138-47.319 1.2124-71.458-33.742 27.254-5.045 42.095-26.635 64.535-12.265 12.747-25.261 5.9748-20.39-4.9162 3.1463-7.0342 10.698-2.7626 13.187-18.987-7.0012 10.515-29.595 3.4048-36.071 20.498-11.267 29.742-26.924 1.1161-1.2636-13.138 10.826-6.0138 36.882-4.0563 43.204-46.951-12.674 25.404-43.767 21.363-68.804 32.318-12.899 5.644-29.977 18.837-29.392 35.126z" fill="url(#e)"/>
<path transform="matrix(.25576 0 0 .25579 -1.2654 784.73)" d="m879.36 117.74c-39.592 89.619-113.65 88.116-148.16 107.28-41.208 22.889-55.165 55.234-54.25 77.375 8.6354-12.229 21.593-24.325 39.969-34.531 8.3425-4.6338 19.046-8.0812 30.969-11.875 17.01-20.334 43.251-26.238 68.281-31.562 25.881-19.451 49.588-51.012 63.188-106.69zm61.469 23.031c-25.524 45.984-10.982 83.483-15.406 123 25.667-43.223 9.6892-80.467 15.406-123zm-537.44 95.188c20.09 27.243 28.215 47.095 28.688 64.156 6.977-11.184 12.06-21.709 13.719-33.188-12.066-12.479-27.384-22.174-42.406-30.969zm459.5 3.125c-6.7003 10.062-17.063 15.984-29.25 20.188-3.0797 2.798-5.8373 6.2831-8.0312 11.188-4.8533 10.849-5.1408 20.644-2.125 28.406 13.917-9.72 32.156-12.521 39.406-59.781zm-346.38 54.781c-7.854 13.538-13.062 28.129-14.344 43.531 7.8481-3.5655 14.668-14.568 14.031-32.281-0.13646-3.7984-0.0243-7.5414 0.3125-11.25zm475.34 54.938c-14.94 24.81-39.773 45.869-66 52.625-43.158 11.118-101.06 50.478-86.156 82.781 17.984-18.112 47.319-33.581 71.875-39.906 5.6891-1.4656 11.308-3.6076 16.781-6.3125 9.3992-12.425 22.495-23.912 41.812-35.375 10.039-13.263 17.314-28.238 20.281-43 0.53239-3.6577 0.99525-7.2682 1.4062-10.812zm-624.31 78.375c-4.834 11.422-9.2949 24.081-13.094 38.344-11.655 43.758-21.188 88.905-4.5 127.56 4.0996 9.4964 14.164 20.713 16.125 32.125 0.11125-0.22871 0.23486-0.45826 0.34375-0.6875 5.7845-12.178 13.032-22.822 14.219-36.688 1.1352-13.258-11.653-26.583-16.406-37.594-16.117-37.334-7.7746-80.721 3.3125-123.06zm623.62 0.40625c-8.4528 3.7426-16.127 7.4462-23.125 11.125-7.1606 14.093-9.5272 24.815-10.844 36.406 7.0673-12.399 17.707-27.456 33.969-47.531zm-53.656 131c-12.797 26.011-33.809 49.381-68.625 63.5-37.216 15.093-92.586-3.1524-105.47 40.625-0.17648 6.6472 0.45999 13.694 2.6875 20 19.3-11.709 49.451-8.2586 75.125-13.781 5.149-5.9031 9.3518-11.486 12.031-15.312-0.7588 4.5732-1.5621 8.7691-2.4062 12.688 1.2701-0.43022 2.5175-0.87516 3.75-1.375 53.368-21.643 74.358-64.975 82.906-106.34zm-599.75 131.91c-7.0644 9.8767-14.322 19.407-18.625 28.875-4.1732 9.1822 6.128 16.127 13.562 20.562 11.207 6.6865 26.695 8.8324 33.281 21.125 4.5887 8.5649 3.3412 17.674-0.53125 25.969-3.6031 7.7186-6.2646 19.516 1.2188 24.656 5.501 3.7786 12.812 5.8908 16.594 12.469 3.6507 6.3499 1.9031 13.956 7.6875 18.906 9.6395 8.2486 25.46 7.4635 32.75 24.625 3.3915 7.9836 5.6772 16.86 10.188 24.781 6.8331 12.001 25.941 15.685 39.125 14.312 14.186-1.4767 24.623-5.9344 38.25-10.281 35.322-11.267 68.438-26.184 99.938-46.781 26.728-17.478 42.554-27.399 66.594-41.812 17.183-10.302 42.249-6.8237 61.375-11.938 23.625-6.3168 52.473-16.202 69.25-33.406 17.036-17.47 24.392-31.477 29.875-62.281-4.0955 6.6954-9.156 12.805-15.594 19.406-16.777 17.204-45.625 27.089-69.25 33.406-19.126 5.1138-44.192 1.6663-61.375 11.969-24.04 14.414-39.865 24.303-66.594 41.781-31.499 20.598-64.616 35.545-99.938 46.812-13.627 4.3469-24.064 8.8046-38.25 10.281-13.184 1.3724-32.292-2.3112-39.125-14.312-4.5103-7.9217-6.796-16.829-10.188-24.812-7.2903-17.162-23.11-16.376-32.75-24.625-5.7844-4.9498-4.0368-12.525-7.6875-18.875-3.7819-6.578-11.093-8.6902-16.594-12.469-7.4834-5.1402-4.8218-16.938-1.2188-24.656 3.8724-8.2951 5.12-17.435 0.53125-26-6.5859-12.293-22.074-14.439-33.281-21.125-2.9937-1.7862-6.4329-3.9854-9.2188-6.5625z" clip-path="url(#h)" fill="#aedbff" filter="url(#f)" opacity=".39381"/>
</g>
</svg>
