<?xml version="1.0" encoding="UTF-8" standalone="no"?>
<svg
   xmlns:dc="http://purl.org/dc/elements/1.1/"
   xmlns:cc="http://creativecommons.org/ns#"
   xmlns:rdf="http://www.w3.org/1999/02/22-rdf-syntax-ns#"
   xmlns:svg="http://www.w3.org/2000/svg"
   xmlns="http://www.w3.org/2000/svg"
   xmlns:sodipodi="http://sodipodi.sourceforge.net/DTD/sodipodi-0.dtd"
   xmlns:inkscape="http://www.inkscape.org/namespaces/inkscape"
   inkscape:version="1.0 (unknown)"
   sodipodi:docname="tkabber.svg"
   id="svg17"
   preserveAspectRatio="xMidYMid meet"
   viewBox="0 0 320 320"
   height="32px"
   width="32px"
   version="1.0">
  <metadata
     id="metadata23">
    <rdf:RDF>
      <cc:Work
         rdf:about="">
        <dc:format>image/svg+xml</dc:format>
        <dc:type
           rdf:resource="http://purl.org/dc/dcmitype/StillImage" />
        <dc:title></dc:title>
      </cc:Work>
    </rdf:RDF>
  </metadata>
  <defs
     id="defs21" />
  <sodipodi:namedview
     inkscape:current-layer="svg17"
     inkscape:window-maximized="0"
     inkscape:window-y="56"
     inkscape:window-x="487"
     inkscape:cy="16.017089"
     inkscape:cx="11.15625"
     inkscape:zoom="16"
     showgrid="false"
     id="namedview19"
     inkscape:window-height="852"
     inkscape:window-width="1283"
     inkscape:pageshadow="2"
     inkscape:pageopacity="0"
     guidetolerance="10"
     gridtolerance="10"
     objecttolerance="10"
     borderopacity="1"
     bordercolor="#666666"
     pagecolor="#ffffff" />
  <path
     sodipodi:nodetypes="cccssccscccc"
     d="m 62,285 c 8.577949,-38.1402 0.469532,-49.8595 -11,-64 -7.853962,-13.99285 -6.151212,-20.86053 -2,-17 7,5 11,-5 11,-28 0,-66 99,-166 164,-166 59,0 74,47 32,97 -13,15 -31,43 -40,60 -9,18 -30,42 -46,54 -16,12 -27,26 -24,30 2,4 -11,11 -30,15 C 83.56066,256.3634 83.031115,256.41977 74.502031,299.26488 70.4286,320.56304 54.68485,330.36425 62,285 Z"
     id="path2"
     style="fill:#62421a;stroke:none" />
  <g
     stroke="none"
     fill="#9a6210"
     id="layer102">
    <path
       sodipodi:nodetypes="cccccccsscccccc"
       id="path5"
       d="m 86,248 c 13,-44 45,-99 82,-141 l 36,-42 -36,34 c -20,18 -51,60 -68,93 C 82,225 67.135538,256.70587 65.135538,254.70587 57.707732,234.59801 39.510405,198.92867 48.510405,203.92867 55.835551,208.83683 60,199 60,176 60,110 159,10 224,10 c 59,0 74,47 32,97 -13,15 -30,42 -39,60 -9,17 -28,40 -42,51 -14,12 -25,24 -25,28 2,10 -28,22 -53,23 -17.562171,-0.52798 -16.224902,-2.80377 -11,-21 z" />
  </g>
  <g
     stroke="none"
     fill="#d37107"
     id="layer103">
    <path
       sodipodi:nodetypes="ccccccssscccccc"
       id="path8"
       d="M 90,245 C 111,189 144,135 183,92 216,56 219,51 195,69 154,100 117,146 88,203 L 64,251 52,225 c -7,-15 -8,-24 -2,-20 6,4 10,-8 10,-29 0,-66 99,-166 164,-166 59,0 74,47 32,97 -13,15 -30,42 -39,60 -9,17 -28,40 -42,51 -14,12 -25,24 -25,28 2,10 -40.87489,22.05042 -54.697537,22.80257 C 80.274925,268.53883 82,266 90,245 Z" />
  </g>
  <g
     stroke="none"
     fill="#fa8c00"
     id="layer104">
    <path
       sodipodi:nodetypes="ccccccccsscccccc"
       id="path11"
       d="M 96,233 C 120,176 149,129 189,86 L 225,47 192,71 C 153,99 98,170 78,219 L 64,253 52,226 C 45,211 44.650242,202 50.650242,205 56.262526,209.08874 60,197 60,176 60,110 159,10 224,10 c 59,0 74,47 32,97 -13,15 -30,42 -39,60 -9,17 -28,40 -42,51 -14,12 -25,24 -25,28 2,10 -28,22 -52,23 -18.515152,-0.98924 -16,-2 -2,-36 z" />
  </g>
  <g
     stroke="none"
     fill="#feb900"
     id="layer105">
    <path
       id="path14"
       d="M115 241 c2 -41 23 -70 60 -86 38 -15 46 -35 15 -35 -27 0 -25 -8 8 -44 l27 -29 -30 20 c-16 12 -39 30 -49 42 -11 12 -25 21 -32 21 -8 0 -22 17 -33 38 l-20 37 -1 -32 c0 -62 101 -163 164 -163 59 0 74 47 32 97 -13 15 -31 43 -40 60 -9 18 -30 42 -46 54 -16 12 -27 25 -25 29 3 4 -3 10 -13 12 -15 4 -18 0 -17 -21z" />
  </g>
</svg>
