<?xml version="1.0" encoding="UTF-8" standalone="no"?>
<svg
   xmlns:dc="http://purl.org/dc/elements/1.1/"
   xmlns:cc="http://creativecommons.org/ns#"
   xmlns:rdf="http://www.w3.org/1999/02/22-rdf-syntax-ns#"
   xmlns:svg="http://www.w3.org/2000/svg"
   xmlns="http://www.w3.org/2000/svg"
   xmlns:sodipodi="http://sodipodi.sourceforge.net/DTD/sodipodi-0.dtd"
   xmlns:inkscape="http://www.inkscape.org/namespaces/inkscape"
   version="1.0"
   width="23.440804"
   height="30.715908"
   viewBox="0 0 234.40804 307.15908"
   preserveAspectRatio="xMidYMid meet"
   id="svg17"
   sodipodi:docname="tkabber.svg"
   inkscape:version="1.0 (unknown)">
  <metadata
     id="metadata23">
    <rdf:RDF>
      <cc:Work
         rdf:about="">
        <dc:format>image/svg+xml</dc:format>
        <dc:type
           rdf:resource="http://purl.org/dc/dcmitype/StillImage" />
        <dc:title />
      </cc:Work>
    </rdf:RDF>
  </metadata>
  <defs
     id="defs21" />
  <sodipodi:namedview
     inkscape:document-rotation="0"
     pagecolor="#ffffff"
     bordercolor="#666666"
     borderopacity="1"
     objecttolerance="10"
     gridtolerance="10"
     guidetolerance="10"
     inkscape:pageopacity="0"
     inkscape:pageshadow="2"
     inkscape:window-width="1283"
     inkscape:window-height="852"
     id="namedview19"
     showgrid="false"
     inkscape:zoom="16"
     inkscape:cx="6.6065132"
     inkscape:cy="15.017089"
     inkscape:window-x="487"
     inkscape:window-y="56"
     inkscape:window-maximized="0"
     inkscape:current-layer="svg17" />
  <path
     style="fill:#62421a;stroke:none"
     id="path2"
     d="m 16.502632,275 c 8.577949,-38.1402 0.469532,-49.8595 -11.0000001,-64 -7.853962,-13.99285 -6.15121196,-20.86053 -2,-17 7.0000001,5 11.0000001,-5 11.0000001,-28 0,-66 98.999998,-166 163.999998,-166 59,0 74,47 32,97 -13,15 -31,43 -40,60 -9,18 -30,42 -46,54 -16,12 -26.999998,26 -24,30 2,4 -10.999998,11 -29.999998,15 -32.43934,-9.6366 -32.968885,-9.58023 -41.497969,33.26488 C 24.931232,310.56304 9.1874819,320.36425 16.502632,275 Z"
     sodipodi:nodetypes="cccssccscccc" />
  <g
     transform="translate(-45.497368,-10)"
     id="layer102"
     fill="#9a6210"
     stroke="none">
    <path
       d="m 86,248 c 13,-44 45,-99 82,-141 l 36,-42 -36,34 c -20,18 -51,60 -68,93 C 82,225 67.135538,256.70587 65.135538,254.70587 57.707732,234.59801 39.510405,198.92867 48.510405,203.92867 55.835551,208.83683 60,199 60,176 60,110 159,10 224,10 c 59,0 74,47 32,97 -13,15 -30,42 -39,60 -9,17 -28,40 -42,51 -14,12 -25,24 -25,28 2,10 -28,22 -53,23 -17.562171,-0.52798 -16.224902,-2.80377 -11,-21 z"
       id="path5"
       sodipodi:nodetypes="cccccccsscccccc" />
  </g>
  <g
     transform="translate(-45.497368,-10)"
     id="layer103"
     fill="#d37107"
     stroke="none">
    <path
       d="M 90,245 C 111,189 144,135 183,92 216,56 219,51 195,69 154,100 117,146 88,203 L 64,251 52,225 c -7,-15 -8,-24 -2,-20 6,4 10,-8 10,-29 0,-66 99,-166 164,-166 59,0 74,47 32,97 -13,15 -30,42 -39,60 -9,17 -28,40 -42,51 -14,12 -25,24 -25,28 2,10 -40.87489,22.05042 -54.697537,22.80257 C 80.274925,268.53883 82,266 90,245 Z"
       id="path8"
       sodipodi:nodetypes="ccccccssscccccc" />
  </g>
  <g
     transform="translate(-45.497368,-10)"
     id="layer104"
     fill="#fa8c00"
     stroke="none">
    <path
       d="M 96,233 C 120,176 149,129 189,86 L 225,47 192,71 C 153,99 98,170 78,219 L 64,253 52,226 C 45,211 44.650242,202 50.650242,205 56.262526,209.08874 60,197 60,176 60,110 159,10 224,10 c 59,0 74,47 32,97 -13,15 -30,42 -39,60 -9,17 -28,40 -42,51 -14,12 -25,24 -25,28 2,10 -28,22 -52,23 -18.515152,-0.98924 -16,-2 -2,-36 z"
       id="path11"
       sodipodi:nodetypes="ccccccccsscccccc" />
  </g>
  <g
     transform="translate(-45.497368,-10)"
     id="layer105"
     fill="#feb900"
     stroke="none">
    <path
       d="m 115,241 c 2,-41 23,-70 60,-86 38,-15 46,-35 15,-35 -27,0 -25,-8 8,-44 l 27,-29 -30,20 c -16,12 -39,30 -49,42 -11,12 -25,21 -32,21 -8,0 -22,17 -33,38 L 61,205 60,173 C 60,111 161,10 224,10 c 59,0 74,47 32,97 -13,15 -31,43 -40,60 -9,18 -30,42 -46,54 -16,12 -27,25 -25,29 3,4 -3,10 -13,12 -15,4 -18,0 -17,-21 z"
       id="path14" />
  </g>
</svg>
