<?xml version="1.0" encoding="UTF-8"?>
<svg version="1.1" viewBox="0 0 512 512" xmlns="http://www.w3.org/2000/svg" xmlns:cc="http://creativecommons.org/ns#" xmlns:dc="http://purl.org/dc/elements/1.1/" xmlns:rdf="http://www.w3.org/1999/02/22-rdf-syntax-ns#">
<metadata>
<rdf:RDF>
<cc:Work rdf:about="">
<dc:format>image/svg+xml</dc:format>
<dc:type rdf:resource="http://purl.org/dc/dcmitype/StillImage"/>
<dc:title/>
</cc:Work>
</rdf:RDF>
</metadata>
<g transform="translate(1124.6 -2177.7)">
<g transform="matrix(.62114 0 0 .62114 -426.07 825.04)" shape-rendering="auto">
<path d="m-1032.2 2192.7h639.51c42.874 0 77.39 29.465 77.39 66.064v662.16c0 36.6-34.516 66.064-77.39 66.064h-639.51c-42.874 0-77.39-29.465-77.39-66.064v-662.16c0-36.6 34.516-66.064 77.39-66.064z" color="#000000" color-rendering="auto" dominant-baseline="auto" fill="#85b3f1" image-rendering="auto" solid-color="#000000" stop-color="#000000" style="font-feature-settings:normal;font-variant-alternates:normal;font-variant-caps:normal;font-variant-east-asian:normal;font-variant-ligatures:normal;font-variant-numeric:normal;font-variant-position:normal;font-variation-settings:normal;inline-size:0;isolation:auto;mix-blend-mode:normal;shape-margin:0;shape-padding:0;text-decoration-color:#000000;text-decoration-line:none;text-decoration-style:solid;text-indent:0;text-orientation:mixed;text-transform:none;white-space:normal"/>
<path d="m-1032.2 2177.7c-49.747 0-92.391 35.034-92.391 81.064v662.16c0 46.03 42.644 81.064 92.391 81.064h639.51c49.747 0 92.391-35.034 92.391-81.064v-662.16c0-46.03-42.644-81.064-92.391-81.064zm0 30h639.51c36.002 0 62.391 23.896 62.391 51.064v662.16c0 27.169-26.389 51.064-62.391 51.064h-639.51c-36.002 0-62.391-23.896-62.391-51.064v-662.16c0-27.169 26.389-51.064 62.391-51.064z" color="#000000" color-rendering="auto" dominant-baseline="auto" image-rendering="auto" solid-color="#000000" stop-color="#000000" style="font-feature-settings:normal;font-variant-alternates:normal;font-variant-caps:normal;font-variant-east-asian:normal;font-variant-ligatures:normal;font-variant-numeric:normal;font-variant-position:normal;font-variation-settings:normal;inline-size:0;isolation:auto;mix-blend-mode:normal;shape-margin:0;shape-padding:0;text-decoration-color:#000000;text-decoration-line:none;text-decoration-style:solid;text-indent:0;text-orientation:mixed;text-transform:none;white-space:normal"/>
</g>
<g transform="matrix(.62114 0 0 .62114 -1529.8 2001.5)">
<path transform="translate(-228.35 -1603)" d="m1327 1948.4v0.1465h-31.672l-181.81 338.76h67.648v19.238h145.83v342.71h96.559v-342.71h217.55v-112.63h-217.55v-245.51zm0 169.94v75.572h-40.559z" fill="#175bb7"/>
</g>
<g transform="matrix(.62108 0 0 .63909 -1529.7 2007.4)">
<g transform="matrix(7.7944 0 0 10.347 5102.9 -4341.9)" shape-rendering="auto" stroke-width=".48104" aria-label="vk  ">
<g>
<path d="m-512.52 461.82-19.44 26.04c-1.6 2.16-3.2267 3.24-4.88 3.24s-3.28-1.0933-4.88-3.28l-18.96-26h11.12l12.88 17.84 12.96-17.84z" color="#000000" color-rendering="auto" dominant-baseline="auto" image-rendering="auto" solid-color="#000000" stop-color="#000000" style="font-feature-settings:normal;font-variant-alternates:normal;font-variant-caps:normal;font-variant-east-asian:normal;font-variant-ligatures:normal;font-variant-numeric:normal;font-variant-position:normal;font-variation-settings:normal;inline-size:0;isolation:auto;mix-blend-mode:normal;shape-margin:0;shape-padding:0;text-decoration-color:#000000;text-decoration-line:none;text-decoration-style:solid;text-indent:0;text-orientation:mixed;text-transform:none;white-space:normal"/>
<path d="m-561.15 461.58 19.238 26.383c1.6233 2.2185 3.3148 3.3789 5.0742 3.3789 1.7581 0 3.4487-1.146 5.0723-3.3379l19.727-26.424h-11.801l-12.838 17.67-12.758-17.67zm0.94336 0.48047h10.525l13.004 18.01 13.082-18.01h10.598l-19.152 25.656c-1.5764 2.1282-3.1389 3.1426-4.6875 3.1426-1.547 0-3.1092-1.0258-4.6856-3.1797v-2e-3z" color="#000000" color-rendering="auto" dominant-baseline="auto" fill="#85b3f1" image-rendering="auto" solid-color="#000000" stop-color="#000000" style="font-feature-settings:normal;font-variant-alternates:normal;font-variant-caps:normal;font-variant-east-asian:normal;font-variant-ligatures:normal;font-variant-numeric:normal;font-variant-position:normal;font-variation-settings:normal;inline-size:0;isolation:auto;mix-blend-mode:normal;shape-margin:0;shape-padding:0;text-decoration-color:#000000;text-decoration-line:none;text-decoration-style:solid;text-indent:0;text-orientation:mixed;text-transform:none;white-space:normal"/>
</g>
<g>
<path d="m-475.58 490.66h-13.6l-13.84-9.64v9.64h-8.96v-28.84h8.96v9.88l13.84-9.88h13.44l-20.56 14.64z" color="#000000" color-rendering="auto" dominant-baseline="auto" image-rendering="auto" solid-color="#000000" stop-color="#000000" style="font-feature-settings:normal;font-variant-alternates:normal;font-variant-caps:normal;font-variant-east-asian:normal;font-variant-ligatures:normal;font-variant-numeric:normal;font-variant-position:normal;font-variation-settings:normal;inline-size:0;isolation:auto;mix-blend-mode:normal;shape-margin:0;shape-padding:0;text-decoration-color:#000000;text-decoration-line:none;text-decoration-style:solid;text-indent:0;text-orientation:mixed;text-transform:none;white-space:normal"/>
<path d="m-512.22 461.58v29.32h9.4414v-9.418l13.523 9.418h14.453l-0.64063-0.4375-20.436-14.006 20.891-14.877h-14.27l-13.521 9.6524v-9.6524zm0.48047 0.48047h8.4805v10.107l14.156-10.107h12.613l-20.23 14.404 20.363 13.955h-12.746l-14.156-9.8594v9.8594h-8.4805z" color="#000000" color-rendering="auto" dominant-baseline="auto" fill="#85b3f1" image-rendering="auto" solid-color="#000000" stop-color="#000000" style="font-feature-settings:normal;font-variant-alternates:normal;font-variant-caps:normal;font-variant-east-asian:normal;font-variant-ligatures:normal;font-variant-numeric:normal;font-variant-position:normal;font-variation-settings:normal;inline-size:0;isolation:auto;mix-blend-mode:normal;shape-margin:0;shape-padding:0;text-decoration-color:#000000;text-decoration-line:none;text-decoration-style:solid;text-indent:0;text-orientation:mixed;text-transform:none;white-space:normal"/>
</g>
</g>
<g transform="matrix(3.6806 0 0 4.8862 2798.7 -1482.3)" stroke="#85b3f1" stroke-width="1.0187" aria-label="xmpp">
<path d="m-515.56 461.82-14.28 14.68 13.64 14.16h-11.4l-9.8-10.32-9.84 10.32h-11.36l13.6-14.16-14.24-14.68h11.56l10.28 10.72 10.24-10.72z"/>
<path d="m-461.83 490.74h-9.8l-3.8-15.24-8.08 13q-1.6 2.52-4.4 2.52-1.44 0-2.8-0.72t-2.04-1.8l-8.12-13-3.76 15.24h-9.84l7.48-25.6q0.44-1.56 1.84-2.6 1.44-1.08 3.28-1.08 2.84 0 4.92 3.36l8.8 14.36 8.84-14.36q2.04-3.36 4.88-3.36 1.88 0 3.28 1.08 1.4 1.04 1.88 2.6z"/>
<path d="m-421.9 472.62q0 4.88-4.2 7.92-4.04 2.88-10 2.88h-15.08v7.24h-8.92v-14.72h24.88q1.84 0 3.08-0.92 1.28-0.92 1.28-2.44t-1.28-2.4q-1.24-0.88-3.08-0.88h-24.88l5.92-7.48h18.12q5.92 0 9.96 2.88 4.2 3.04 4.2 7.92z"/>
<path d="m-383.16 472.62q0 4.88-4.2 7.92-4.04 2.88-10 2.88h-15.08v7.24h-8.92v-14.72h24.88q1.84 0 3.08-0.92 1.28-0.92 1.28-2.44t-1.28-2.4q-1.24-0.88-3.08-0.88h-24.88l5.92-7.48h18.12q5.92 0 9.96 2.88 4.2 3.04 4.2 7.92z"/>
</g>
</g>
</g>
</svg>
