<?xml version="1.0" encoding="UTF-8"?>
<svg width="24px" height="24px" viewBox="0 0 24 24" version="1.1" xmlns="http://www.w3.org/2000/svg" xmlns:xlink="http://www.w3.org/1999/xlink">
    <!-- Generator: Sketch 64 (93537) - https://sketch.com -->
    <title>icon/android/tray/regular/offline</title>
    <desc>Created with Sketch.</desc>
    <g id="icon/android/tray/regular/offline" stroke="none" stroke-width="1" fill="none" fill-rule="evenodd">
        <g id="Xabber-Icon">
            <rect id="Rectangle" x="0" y="0" width="24" height="24"></rect>
            <g id="Offline" transform="translate(4.000000, 1.000000)" fill="#000000">
                <path d="M10.009222,19.5 C10.5173285,19.5 10.9361019,19.8827202 10.9933343,20.3826674 L11,20.5 C11,21.0522847 10.5490248,21.5 10.009222,21.5 L9.41439849,21.500703 C9.20828193,22.0829319 8.6528467,22.5 8,22.5 C7.3471533,22.5 6.79171807,22.0829319 6.58560151,21.500703 L5.99077797,21.5 C5.44358641,21.5 5,21.0561352 5,20.5 C5,19.9477153 5.45097518,19.5 5.99077797,19.5 L10.009222,19.5 Z" id="Base"></path>
                <rect id="Middle-base" x="4" y="16.75" width="8" height="2" rx="1"></rect>
                <path d="M8,0 C12.418278,0 16,3.581722 16,8 C16,10.282906 15.0437712,12.3424727 13.5099945,13.8000192 L13.5099945,13.8000192 C13.1966102,14.1049344 13.0013821,14.5296633 13,15 C13,15.5522847 12.5443356,16 12.0046024,16 L12.0046024,16 L3.99539757,16 C3.44565467,16 3,15.5561352 2.99998649,15 C2.99861167,14.5296664 2.80338616,14.10494 2.49000549,13.8015163 L2.49000549,13.8015163 C0.956228844,12.3424727 0,10.282906 0,8 C0,3.581722 3.581722,0 8,0 Z M8,2 C4.6862915,2 2,4.6862915 2,8 C2,9.77699963 2.77250128,11.3735719 4,12.472213 C4.39851111,12.8950917 4.69786083,13.4253152 4.86088543,14 L4.86088543,14 L11.1391084,14 C11.3021338,13.4253123 11.6014858,12.895093 12,12.472213 C13.2274987,11.3735719 14,9.77699963 14,8 C14,4.6862915 11.3137085,2 8,2 Z" id="Bulb-shape"></path>
            </g>
        </g>
    </g>
</svg>
