/* XPM */
static char *black_king[]={
"40 40 3 1",
". c None",
"# c #000000",
"a c #ffffff",
"........................................",
"........................................",
"........................................",
"........................................",
"...................##...................",
"...................##...................",
".................######.................",
".................######.................",
"...................##...................",
"...................##...................",
"........####.......##.......####........",
"......########....#aa#....########......",
".....##########..#a##a#..##########.....",
".....####aaaa####a####a####aaaa####.....",
"....####a####a###a####a###a####a####....",
"....###a######a###a##a###a######a###....",
"....###a#######a###aa###a#######a###....",
"....###a########a##aa##a########a###....",
".....##a#########a####a#########a##.....",
".....###a########a####a########a###.....",
".....###a#########a##a#########a###.....",
"......##a#########a##a#########a##......",
"......###a########a##a########a###......",
".......##a########a##a########a##.......",
".......###a#######a##a#######a###.......",
"........###a######a##a######a###........",
".........###a#####a##a#####a###.........",
"..........###aaaaaaaaaaaaaa###..........",
"..........aaa##############aaa..........",
"..........####################..........",
".........######aaaaaaaaaa######.........",
"........####aaa##########aaa####........",
"........aaaa################aaaa........",
"........########################........",
"........########################........",
"........########################........",
".........######################.........",
"........................................",
"........................................",
"........................................"};
