<?xml version="1.0" encoding="utf-8"?>
<!-- Generator: Adobe Illustrator 22.1.0, SVG Export Plug-In . SVG Version: 6.00 Build 0)  -->
<svg version="1.1" id="Слой_1" xmlns="http://www.w3.org/2000/svg" xmlns:xlink="http://www.w3.org/1999/xlink" x="0px" y="0px"
	 width="64px" height="64px" viewBox="0 0 64 64" style="enable-background:new 0 0 64 64;" xml:space="preserve">
<style type="text/css">
	.st0{fill:url(#SVGID_1_);}
	.st1{fill:#0085A7;}
	.st2{fill:#FFF349;}
	.st3{fill:#EC8B3F;}
</style>
<g>
	<g>
		<linearGradient id="SVGID_1_" gradientUnits="userSpaceOnUse" x1="7.3170547" y1="15.7161207" x2="45.9212685" y2="54.3203354">
			<stop  offset="0" style="stop-color:#FFFFFF"/>
			<stop  offset="0.2020065" style="stop-color:#FAFDFE"/>
			<stop  offset="0.4364496" style="stop-color:#ECF8FC"/>
			<stop  offset="0.6869758" style="stop-color:#D5EFF7"/>
			<stop  offset="0.9472683" style="stop-color:#B4E3F1"/>
			<stop  offset="0.9999995" style="stop-color:#ADE0F0"/>
		</linearGradient>
		<path class="st0" d="M31.4360638,5.5932479c-16.4265728,0-29.7430973,11.0174847-29.7430973,24.608078
			c0,5.5004368,2.2079678,10.5618649,5.8939753,14.6594982c0.7084389,4.5831451-0.9770947,8.5481873-5.8133707,13.5498276
			c0,0,12.0100861,0.6001968,18.4611282-5.4211807c3.4593086,1.165226,7.2359962,1.8199348,11.2013645,1.8199348
			c16.4265728,0,29.7430973-11.0174866,29.7430973-24.6080799S47.8626366,5.5932479,31.4360638,5.5932479z"/>
		<path class="st1" d="M31.4360638,6.4730401c-4.790123,0.0366793-9.5785351,1.0063152-13.9418831,2.955893
			c-4.313818,2.0157127-8.2574949,4.9596233-10.9791651,8.850934c-2.7721746,3.8271103-4.2068253,8.5902462-3.8886299,13.2859726
			c0.2951407,4.7090893,2.442843,9.1874523,5.6123161,12.7038898l0.0021248,0.0024796
			c0.1144419,0.1304054,0.1871214,0.2953758,0.2156219,0.4545593c0.4489269,2.6851234-0.0452051,5.5746956-1.294663,7.9701424
			c-1.227869,2.4174232-2.9586859,4.4345245-4.7488003,6.3179245l-0.006716,0.0071411l-0.588499-1.4900093
			c3.1476398,0.0754051,6.4087691-0.2723312,9.4893456-1.0258904c3.0762053-0.7827148,6.0397024-2.0750046,8.3189173-4.1528969
			l0.0081081-0.0066719l0.0448151-0.0368652c0.2419243-0.1990089,0.5601444-0.2461395,0.8368702-0.1538353
			c7.4578438,2.5109863,15.817791,2.3215523,23.1536217-0.4887581c7.2936783-2.7634506,13.7466507-8.5318489,15.8529358-16.0831757
			c2.2442894-7.4969349-0.6307259-15.9217358-6.495224-21.0839996C47.2681389,9.1699858,39.301609,6.4472108,31.4360638,6.4730401z
			 M31.4360638,4.7134571c8.2746868-0.256887,16.7320805,2.4394693,23.2763653,7.9730825
			c6.6419525,5.3413649,10.4502296,14.9437857,8.0798988,23.8211517
			c-2.3096428,8.8830681-9.6470871,15.6016312-17.8070412,18.5647964c-4.1205406,1.442009-8.4790764,2.2908707-12.7858124,1.9400673
			c-4.2898369-0.1359177-8.529047-1.2400627-12.245575-3.1884079l0.8813686-0.1907539l-0.0096226,0.0070839
			c-2.5914021,2.3728905-5.8222227,3.7578239-9.0799084,4.6002998c-3.2934647,0.7918816-6.6103978,1.1387405-10.0157146,1.0485992
			c-0.4806509-0.0127182-0.8599747-0.412674-0.8472508-0.8933105c0.0058857-0.222084,0.0944157-0.4225349,0.2354044-0.5726738
			l0.0231277-0.0245399l0.0064474-0.0068474c1.7238081-1.809536,3.3517351-3.7299118,4.4427671-5.8870773
			c1.1049771-2.1480331,1.509675-4.5376282,1.1269813-6.9094048l0.2151098,0.4534569l-0.0023689-0.0025864
			c-3.5020044-3.6466637-6.0244145-8.5093193-6.3659573-13.7363529c-0.4084349-5.1840687,1.147789-10.4940338,4.145184-14.7105122
			c2.8959212-4.3566723,7.3630133-7.3165798,11.9602985-9.3826418C21.3759727,5.6881328,26.4181557,4.8002896,31.4360638,4.7134571z
			"/>
	</g>
	<g>
		<path class="st2" d="M32.5511169,16.6591702l3.189785,9.817152c0.0583916,0.1797123,0.2258606,0.3013859,0.4148216,0.3013859
			h10.3223648c0.4225273,0,0.5982056,0.5406837,0.2563744,0.7890396l-8.3509674,6.0673351
			c-0.152874,0.1110687-0.2168388,0.3079414-0.1584473,0.4876518l3.189785,9.8171539
			c0.1305695,0.4018478-0.3293648,0.7360077-0.671196,0.4876518l-8.3509712-6.0673332
			c-0.1528702-0.1110687-0.3598747-0.1110687-0.5127468,0l-8.3509693,6.0673332
			c-0.3418331,0.2483559-0.8017654-0.085804-0.671196-0.4876518l3.189785-9.8171539
			c0.0583935-0.1797104-0.0055752-0.3765831-0.1584473-0.4876518l-8.3509693-6.0673351
			c-0.3418312-0.2483559-0.166153-0.7890396,0.2563744-0.7890396h10.3223648c0.188961,0,0.356432-0.1216736,0.4148235-0.3013859
			l3.189785-9.817152C31.8520393,16.2573223,32.4205475,16.2573223,32.5511169,16.6591702z"/>
		<path class="st3" d="M23.271925,46.1107826c-0.4188881,0-0.8377762-0.12817-1.1941433-0.3891907
			c-0.7189846-0.5189209-1.0159569-1.436409-0.7408676-2.2788734l2.9259605-9.0092087l-7.6650162-5.5721416
			c-0.7158594-0.5157948-1.0128326-1.4301567-0.7408676-2.2741833c0.2719631-0.8424644,1.0503445-1.4098377,1.9381351-1.4098377
			h9.4781113l2.9259605-9.0123348c0.2750912-0.8440266,1.0534725-1.4082747,1.938139-1.4082747c0.0031242,0,0.0031242,0,0.0062485,0
			c0.8846664,0.0031261,1.6567955,0.5689373,1.9287605,1.4082747l2.9290848,9.0123348h9.4781113
			c0.8846664,0,1.6630478,0.5642471,1.9350128,1.4051476c0.2750893,0.8409023-0.0218849,1.7568264-0.7346191,2.2773113
			l-7.6712646,5.5737038l2.9290848,9.0092087c0.2750893,0.8424644-0.0250092,1.7583885-0.7408676,2.2788734
			c-0.7189865,0.5189209-1.6786766,0.5220451-2.3976631-0.0031281l-7.6618881-5.5658875l-7.6681442,5.5690155
			C24.1128254,45.9810524,23.6939373,46.1107826,23.271925,46.1107826z M32.1373367,36.6748695
			c0.4188843,0,0.8377724,0.1297302,1.1941414,0.3891907l5.4549141,3.9606743l-2.0850601-6.4067879
			c-0.268837-0.8565331,0.0343857-1.7646446,0.7439957-2.2788734l5.4517899-3.9606762h-6.7428398
			c-0.894043,0-1.6724243-0.5720615-1.9412613-1.4239044l-2.0756798-6.391161l-2.0819359,6.4067917
			c-0.2782154,0.8455887-1.0565968,1.4082737-1.9381351,1.4082737H21.377552l5.4517899,3.9622402
			c0.7189865,0.5204811,1.0159588,1.4395332,0.7377434,2.2835617l-2.0788078,6.4005356l5.4517899-3.9606743
			C31.2995605,36.8045998,31.7184467,36.6748695,32.1373367,36.6748695z M24.5254612,33.6285591
			c0,0.0031242-0.0031261,0.0062523-0.0031261,0.0109406L24.5254612,33.6285591z M37.2546387,25.9572906l0.0093803,0.0234451
			C37.260891,25.9729195,37.2577667,25.9651051,37.2546387,25.9572906z M31.0244694,17.1450214
			c0,0.0031261,0.0031261,0.0046902,0.0031261,0.0078163L31.0244694,17.1450214z"/>
	</g>
</g>
</svg>
