/* XPM */
static char *black_queen[]={
"40 40 3 1",
". c None",
"# c #000000",
"a c #ffffff",
"........................................",
"........................................",
"........................................",
"........................................",
"........................................",
"........................................",
"...................##...................",
"...........##.....####.....##...........",
"..........####....####....####..........",
"..........####.....##.....####..........",
"...........##......##......##...........",
"...##......##......##......##......##...",
"..####.....##.....####.....##.....####..",
"..####.....###....####....###.....####..",
"...##......###....####....###......##...",
"....#......###....####....###......#....",
"....##.....####...####...####.....##....",
"....###....####...####...####....###....",
"....####...####...####...####...####....",
".....###...####..######..####...###.....",
".....####..#####.######.#####..####.....",
"......####.#####.######.#####.####......",
"......##########.######.##########......",
"......############################......",
".......##########################.......",
".......########aaaaaaaaaa########.......",
"........##aaaaa##########aaaaa##........",
"........#a####################a#........",
".........######################.........",
".........######aaaaaaaaaa######.........",
".........#aaaaa##########aaaaa#.........",
".........######################.........",
"........#######aaaaaaaaaa#######........",
"........#aaaaaa##########aaaaaa#........",
"........########################........",
"........########################........",
".........######################.........",
"........................................",
"........................................",
"........................................"};
