/* XPM */
static char *white_pawn[]={
"40 40 3 1",
". c None",
"# c #000000",
"a c #ffffff",
"........................................",
"........................................",
"........................................",
"........................................",
"........................................",
"........................................",
"........................................",
"........................................",
"........................................",
"........................................",
"........................................",
"..................####..................",
".................#aaaa#.................",
"................#aaaaaa#................",
"...............#aaaaaaaa#...............",
"...............#aaaaaaaa#...............",
"...............#aaaaaaaa#...............",
"................#aaaaaa#................",
"................##aaaa##................",
"...............#aaaaaaaa#...............",
"..............#aaaaaaaaaa#..............",
".............#aaaaaaaaaaaa#.............",
".............#aaaaaaaaaaaa#.............",
".............#aaaaaaaaaaaa#.............",
"..............#aaaaaaaaaa#..............",
"...............#aaaaaaaa#...............",
"..............#aaaaaaaaaa#..............",
".............#aaaaaaaaaaaa#.............",
"............#aaaaaaaaaaaaaa#............",
"............#aaaaaaaaaaaaaa#............",
"...........#aaaaaaaaaaaaaaaa#...........",
"...........#aaaaaaaaaaaaaaaa#...........",
"..........#aaaaaaaaaaaaaaaaaa#..........",
"..........#aaaaaaaaaaaaaaaaaa#..........",
"..........#aaaaaaaaaaaaaaaaaa#..........",
"..........#aaaaaaaaaaaaaaaaaa#..........",
"..........####################..........",
"........................................",
"........................................",
"........................................"};
