/* XPM */
static char *white_king[]={
"40 40 3 1",
". c None",
"# c #000000",
"a c #ffffff",
"........................................",
"........................................",
"........................................",
"........................................",
"...................##...................",
"...................##...................",
".................##aa##.................",
".................##aa##.................",
"...................##...................",
"...................##...................",
"........####.......##.......####........",
"......##aaaa##....####....##aaaa##......",
".....#aaaaaaaa#..##aa##..#aaaaaaaa#.....",
".....#aaa####aa###aaaa###aa####aaa#.....",
"....#aaa#aaaa#aa##aaaa##aa#aaaa#aaa#....",
"....#aa#aaaaaa#aa##aa##aa#aaaaaa#aa#....",
"....#aa#aaaaaaa#aa####aa#aaaaaaa#aa#....",
"....#aa#aaaaaaaa#aa##aa#aaaaaaaa#aa#....",
".....#a#aaaaaaaaa#aaaa#aaaaaaaaa#a#.....",
".....#aa#aaaaaaaa#aaaa#aaaaaaaa#aa#.....",
".....#aa#aaaaaaaaa#aa#aaaaaaaaa#aa#.....",
"......#a#aaaaaaaaa#aa#aaaaaaaaa#a#......",
"......#aa#aaaaaaaa#aa#aaaaaaaa#aa#......",
".......#a#aaaaaaaa#aa#aaaaaaaa#a#.......",
".......#aa#aaaaaaa#aa#aaaaaaa#aa#.......",
"........#aa#aaaaaa#aa#aaaaaa#aa#........",
".........#aa#aaaaa#aa#aaaaa#aa#.........",
"..........#aa##############aa#..........",
"..........###aaaaaaaaaaaaaa###..........",
"..........#aaaaaaaaaaaaaaaaaa#..........",
".........#aaaaa##########aaaaa#.........",
"........#aaa###aaaaaaaaaa###aaa#........",
"........####aaaaaaaaaaaaaaaa####........",
"........#aaaaaaaaaaaaaaaaaaaaaa#........",
"........#aaaaaaaaaaaaaaaaaaaaaa#........",
"........##aaaaaaaaaaaaaaaaaaaa##........",
".........######################.........",
"........................................",
"........................................",
"........................................"};
