/* XPM */
static char *white_knight[]={
"40 40 3 1",
". c None",
"# c #000000",
"a c #ffffff",
"........................................",
"........................................",
"........................................",
"........................................",
"........................................",
"........................................",
"................#...#...................",
"...............#a#.#a#..................",
"...............#a#.#a#..................",
"..............#aaa#aa#..................",
".............#aa##aaa##.................",
"............#aa#aaaaaaa##...............",
"...........#aaaaaaaaaaaaa#..............",
"..........#aaaaaaaaaaa#aaa#.............",
".........#aaa###aaaaaaa#aaa#............",
".........#aa###aaaaaaaaa#aaa#...........",
"........#aaaaaaaaaaaaaaaa#aaa#..........",
"........#aaaaaaaaaaaaaaaaa#aa#..........",
".......#aaaaaaaaaaaaaaaaaa#aaa#.........",
".......#aaaaaaaaaaaaaa#aaaa#aa#.........",
"......#aaaaaaaaaaaaaa##aaaaa#aa#........",
".....#aaaaaaaaaaaaa##.#aaaa#aaa#........",
"....#a##aaaaaaaaaa#...#aaaaa#aa#........",
"....#aaaaaaaaaaaa#...#aaaaaaa#aa#.......",
"....#aaaa#aaaaa##...#aaaaaaa#aaa#.......",
"....#aaa##aaa##....#aaaaaaaaa#aa#.......",
".....####aaa#.....#aaaaaaaaaaa#aa#......",
".......#aaa#....##aaaaaaaaaaa#aaa#......",
"......#aa##....#aaaaaaaaaaaaaa#aa#......",
".......##.....#aaaaaaaaaaaaaa#aaa#......",
".............#aaaaaaaaaaaaaaaa#aa#......",
"............#aaaaaaaaaaaaaaaa#aaa#......",
"...........#aaaaaaaaaaaaaaaaaa#aa#......",
"...........#aaaaaaaaaaaaaaaaaaaaa#......",
"...........#aaaaaaaaaaaaaaaaaaaaa#......",
"...........#aaaaaaaaaaaaaaaaaaaaa#......",
"...........######################.......",
"........................................",
"........................................",
"........................................"};
