/* XPM */
static char *white_castle[]={
"40 40 3 1",
". c None",
"# c #000000",
"a c #ffffff",
"........................................",
"........................................",
"........................................",
"........................................",
"........................................",
"........................................",
"........................................",
"..........#####...####...#####..........",
"..........#aaa#...#aa#...#aaa#..........",
"..........#aaa#...#aa#...#aaa#..........",
"..........#aaaa###aaaa###aaaa#..........",
"..........#aaaaaaaaaaaaaaaaaa#..........",
"...........#aaaaaaaaaaaaaaaa#...........",
"............#a############a#............",
".............#aaaaaaaaaaaa#.............",
"..............#aaaaaaaaaa#..............",
"..............#a########a#..............",
"..............#aaaaaaaaaa#..............",
"..............#aaaaaaaaaa#..............",
"..............#aaaaaaaaaa#..............",
"..............#aaaaaaaaaa#..............",
"..............#aaaaaaaaaa#..............",
"..............#aaaaaaaaaa#..............",
"..............#aaaaaaaaaa#..............",
"..............#aaaaaaaaaa#..............",
"..............#aaaaaaaaaa#..............",
"..............#aaaaaaaaaa#..............",
"..............#a########a#..............",
"..............#aaaaaaaaaa#..............",
".............#a##########a#.............",
"............#aaaaaaaaaaaaaa#............",
"...........#aaaaaaaaaaaaaaaa#...........",
"..........#a################a#..........",
"..........#aaaaaaaaaaaaaaaaaa#..........",
".........#aaaaaaaaaaaaaaaaaaaa#.........",
".........#aaaaaaaaaaaaaaaaaaaa#.........",
".........######################.........",
"........................................",
"........................................",
"........................................"};
